<svg width="144" height="45" viewBox="0 0 144 45" fill="none" xmlns="http://www.w3.org/2000/svg">
<path d="M49.1418 0C49.2594 0.0217531 49.377 0.0536578 49.496 0.062359C51.208 0.178376 52.872 0.503223 54.4678 1.15002C55.7804 1.68224 56.8999 2.47986 57.8365 3.53416C58.4666 4.24331 58.9473 5.04818 59.3277 5.9154C59.7764 6.94215 60.0697 8.01531 60.2671 9.11167C60.3717 9.6874 60.4094 10.2762 60.4791 10.8577C60.4995 11.0332 60.5256 11.2087 60.5546 11.4219H57.1961C57.1961 11.8497 57.1961 12.2398 57.1961 12.6313C57.1961 13.3028 57.2106 13.9742 57.1932 14.6442C57.1497 16.4381 58.3708 17.8796 60.212 18.2088C59.9869 18.9441 59.7851 19.6793 59.5339 20.3972C59.1767 21.4196 58.6525 22.3651 57.9439 23.183C57.2252 24.014 56.3961 24.729 55.4072 25.2481C54.0496 25.9602 52.6019 26.3445 51.0962 26.5968C49.2085 26.913 47.3078 26.8796 45.4144 26.8216C43.6328 26.768 41.8744 26.4591 40.1987 25.8137C38.6915 25.2336 37.4007 24.3461 36.3669 23.0888C35.2633 21.7473 34.6404 20.1927 34.289 18.5235C34.1075 17.6563 33.9797 16.7717 33.9057 15.8899C33.8171 14.8269 33.7532 13.7552 33.7793 12.6893C33.8302 10.6025 34.0697 8.53738 34.79 6.5535C35.3577 4.99017 36.2507 3.64438 37.5154 2.56832C38.7061 1.55607 40.1203 0.960039 41.6261 0.578634C42.7659 0.290042 43.9217 0.0855624 45.1037 0.0609088C45.1472 0.0609088 45.1908 0.0217531 45.2329 0C46.5354 0 47.8378 0 49.1403 0L49.1418 0ZM45.4914 13.4217C45.4914 16.5411 45.4885 19.6605 45.4943 22.7784C45.4943 23.3701 45.7614 23.8733 46.3219 24.0459C46.6254 24.1387 46.9637 24.1373 47.2861 24.1547C48.3388 24.2112 48.8964 23.6399 48.8935 22.5522C48.8775 16.4309 48.8862 10.3095 48.8862 4.18966C48.8862 4.11569 48.8964 4.03883 48.8847 3.96632C48.77 3.26442 48.5798 2.88882 47.8756 2.7525C47.5678 2.69304 47.2469 2.69014 46.9318 2.68724C46.0286 2.67999 45.4914 3.22237 45.4914 4.12875C45.4914 7.22639 45.4914 10.324 45.4914 13.4217Z" fill="white"/>
<path d="M144.001 26.2662H120.963V0.59314H143.333V9.3205H131.529V11.7525H141.159V14.7602H131.526V17.5113H144.001V26.2662Z" fill="white"/>
<path d="M144 41.5398C143.838 41.927 143.709 42.3316 143.507 42.6956C143.063 43.499 142.311 43.95 141.491 44.2792C140.505 44.6752 139.469 44.8883 138.405 44.9246C137.364 44.9594 136.318 45.0246 135.28 44.9768C133.991 44.9173 132.723 44.6839 131.554 44.0907C130.303 43.4555 129.543 42.4549 129.334 41.0583C129.331 41.038 129.333 41.0163 129.333 40.9945C129.336 40.1882 129.262 40.3376 129.951 40.3274C130.333 40.3216 130.715 40.3274 131.019 40.3274C131.19 40.835 131.29 41.3208 131.509 41.7443C131.808 42.3229 132.381 42.6028 132.973 42.8203C133.777 43.1162 134.609 43.2554 135.466 43.2684C136.05 43.2771 136.635 43.354 137.214 43.3207C138.343 43.2554 139.484 43.2235 140.561 42.8174C141.554 42.4447 142.099 41.8893 142.079 40.8335C142.067 40.2317 141.763 39.7879 141.223 39.5951C140.709 39.4109 140.153 39.305 139.607 39.2514C138.755 39.1673 137.897 39.1557 137.04 39.1121C136.259 39.0715 135.476 39.0454 134.696 38.9816C133.516 38.8859 132.327 38.8149 131.19 38.4625C130.143 38.1391 129.279 37.15 129.253 35.9086C129.233 34.9022 129.555 34.0698 130.249 33.3896C130.939 32.7124 131.795 32.3049 132.719 32.0163C134.397 31.4913 136.125 31.5218 137.842 31.5914C139.083 31.6421 140.32 31.8567 141.437 32.4702C142.646 33.1329 143.3 34.151 143.361 35.5374C143.368 35.6926 143.4 35.8463 143.425 36.0247H141.679C141.517 35.5461 141.415 35.0617 141.191 34.6411C140.856 34.0074 140.213 33.7493 139.558 33.5593C138.142 33.1503 136.686 33.188 135.241 33.2519C134.232 33.2954 133.215 33.4476 132.308 33.9552C131.71 34.2902 131.248 34.7412 131.187 35.4837C131.111 36.4075 131.74 36.8962 132.427 37.0557C133.027 37.195 133.645 37.266 134.259 37.3182C135.091 37.3878 135.928 37.4096 136.763 37.4531C137.576 37.4952 138.393 37.5068 139.202 37.5894C140.086 37.6793 140.979 37.7722 141.84 37.981C142.929 38.2464 143.689 38.9251 143.94 40.0722C143.946 40.0968 143.978 40.1157 143.998 40.1374V41.5427L144 41.5398Z" fill="white"/>
<path d="M10.5214 26.2575H0.0174308C0.0174308 26.1241 0.0174308 25.9906 0.0174308 25.8587C0.0174308 18.2639 0.026143 10.6706 6.56173e-06 3.07588C-0.00144546 2.50305 0.238138 2.23331 0.667937 1.97372C1.73808 1.32403 2.85614 0.7889 4.07874 0.51046C4.69875 0.36979 5.33038 0.258124 5.96346 0.203016C6.55879 0.150808 7.16429 0.159509 7.76252 0.200115C8.66277 0.261024 9.53108 0.497408 10.3718 0.826606C11.4187 1.23847 12.4598 1.67063 13.5154 2.06073C14.5522 2.44359 15.6441 2.5045 16.7302 2.41749C17.735 2.33627 18.6817 1.99257 19.6096 1.60247C20.7334 1.1297 21.8399 0.607624 23.048 0.36979C23.9468 0.192864 24.8441 0.0986005 25.772 0.174011C26.816 0.259574 27.8179 0.469854 28.8009 0.812104C29.8144 1.16595 30.7538 1.66048 31.641 2.25796C31.8327 2.38703 31.9227 2.53785 31.9227 2.79599C31.9111 7.42941 31.9155 12.0628 31.9155 16.6962V26.2415H21.3476V25.8761C21.3476 21.0411 21.352 16.2046 21.3447 11.3696C21.3447 10.4995 21.0006 9.88171 19.9886 9.84836C19.5878 9.83531 19.1769 9.84836 18.7834 9.92232C18.326 10.0079 17.9557 10.5648 17.9543 11.0665C17.9528 12.8242 17.9543 14.5818 17.9543 16.3395C17.9543 19.514 17.9543 22.6871 17.9543 25.8616V26.2517H13.983C13.983 26.1299 13.983 26.0066 13.983 25.8848C13.983 21.0701 13.9859 16.2568 13.9786 11.4421C13.9786 10.8229 13.8479 10.2486 13.1858 9.96438C12.5208 9.67868 11.2808 9.74394 10.864 10.295C10.5853 10.6634 10.5315 11.0854 10.5301 11.5059C10.5199 16.2887 10.5228 21.0701 10.5228 25.8529V26.2604L10.5214 26.2575Z" fill="white"/>
<path d="M102.502 0.59895V11.6582C102.873 11.0651 103.196 10.5474 103.522 10.0326C104.563 8.38222 105.61 6.73624 106.646 5.083C107.541 3.65164 108.423 2.21013 109.322 0.780227C109.384 0.680162 109.545 0.584448 109.661 0.584448C112.971 0.574297 116.28 0.575747 119.589 0.577197C119.65 0.577197 119.709 0.584448 119.842 0.5946C119.534 1.04707 119.256 1.45602 118.978 1.86643C118.011 3.29054 117.044 4.7161 116.075 6.1402C115.072 7.61651 114.067 9.09138 113.061 10.5648C112.625 11.2029 112.191 11.8424 111.736 12.4675C111.625 12.6212 111.632 12.7212 111.722 12.8692C112.732 14.5369 113.739 16.2076 114.745 17.8796C115.541 19.2022 116.332 20.5277 117.128 21.8503C117.934 23.1918 118.744 24.5303 119.55 25.8703C119.618 25.9834 119.67 26.1052 119.752 26.2677C119.602 26.2677 119.5 26.2677 119.397 26.2677C115.853 26.2677 112.308 26.2648 108.766 26.2749C108.498 26.2749 108.372 26.1763 108.257 25.9515C107.466 24.394 106.664 22.8423 105.863 21.2891C105.316 20.2304 104.767 19.1732 104.212 18.1175C103.659 17.0632 103.098 16.0118 102.51 14.8966V26.2474H91.9453V0.59895H102.502Z" fill="white"/>
<path d="M89.1503 26.2662H88.8425C85.5333 26.2662 82.2256 26.2648 78.9165 26.2706C78.6943 26.2706 78.5985 26.2155 78.523 25.9878C76.7646 20.7047 74.9946 15.4274 73.226 10.1471C73.1984 10.063 73.1665 9.98182 73.0953 9.90786V26.243H65.5593C65.5593 25.3526 65.4475 24.4535 65.5883 23.5949C65.7539 22.5841 66.1706 21.6314 66.8269 20.7975C67.1304 20.4117 67.4368 20.2232 67.9406 20.2624C68.5824 20.3117 69.23 20.3088 69.8442 20.0245C70.955 19.5097 71.7043 18.6831 71.8785 17.4707C71.9947 16.6673 71.9438 15.8392 71.9584 15.0227C71.9671 14.5239 71.9598 14.0236 71.9598 13.4812H71.5997C70.6385 13.4812 69.6787 13.4812 68.7175 13.4812C67.7214 13.4812 66.84 13.806 66.143 14.5079C65.5259 15.1315 65.1687 15.9088 65.1484 16.7993C65.1281 17.7042 65.144 18.6091 65.144 19.5155C65.144 19.5895 65.1615 19.6707 65.1382 19.7374C65.1063 19.8273 65.0409 19.9042 64.9901 19.9868C64.9393 19.9187 64.8754 19.8548 64.8391 19.7794C64.6169 19.3023 64.389 18.8281 64.1915 18.3408C64.0986 18.1131 64.0274 17.8608 64.0216 17.6186C64.0013 16.7238 64.0202 15.8291 64.0129 14.9357C64.0042 13.7944 63.5846 12.8489 62.6611 12.1397C62.5783 12.0759 62.558 11.9193 62.5333 11.8004C62.513 11.709 62.5304 11.609 62.5304 11.5132C62.5304 8.00954 62.5304 4.50583 62.5304 1.00212V0.574312H62.8818C66.1793 0.574312 69.4783 0.574312 72.7759 0.571411C72.9849 0.571411 73.0968 0.600415 73.1766 0.8426C74.784 5.68195 76.4074 10.5155 78.0293 15.3505C78.2006 15.8595 78.385 16.3642 78.597 16.8645V0.601866H89.1518L89.1503 26.2662Z" fill="white"/>
<path d="M94.5117 31.7625H94.8834C97.5842 31.7625 100.285 31.7422 102.986 31.7726C104.011 31.7842 105.03 31.9046 106.015 32.2628C107.266 32.7182 108.178 33.4955 108.412 34.8384C108.663 36.2799 108.19 37.7838 106.581 38.4146C106.427 38.4755 106.279 38.5495 106.09 38.6336C106.733 38.7772 107.279 39.028 107.67 39.5197C108.052 40.0026 108.319 40.545 108.323 41.1772C108.331 42.3737 108.325 43.5701 108.325 44.7825H106.466V44.4808C106.466 43.6499 106.481 42.8189 106.462 41.9894C106.449 41.3788 106.34 40.7944 105.914 40.2999C105.588 39.9199 105.164 39.743 104.709 39.6342C104.335 39.5458 103.94 39.5023 103.555 39.5008C101.303 39.4892 99.0507 39.495 96.7987 39.495H96.4168V44.7839H94.5132V31.7625H94.5117ZM96.4269 38.0245C97.1166 38.0245 97.7875 38.0361 98.4569 38.0216C100.443 37.9781 102.437 38.1681 104.412 37.878C104.93 37.8026 105.466 37.588 105.907 37.3052C106.598 36.8629 106.778 36.1233 106.645 35.3532C106.514 34.6034 105.981 34.1481 105.293 33.8711C104.432 33.5245 103.517 33.4476 102.608 33.4317C100.657 33.3983 98.7052 33.4215 96.7522 33.4215H96.4255V38.023L96.4269 38.0245Z" fill="white"/>
<path d="M37.957 31.7625C38.8428 31.7625 39.7067 31.7553 40.5707 31.7712C40.6854 31.7727 40.819 31.8698 40.909 31.9583C42.7095 33.7464 44.4984 35.5447 46.3033 37.3299C47.931 38.9396 49.5732 40.5334 51.2416 42.1649V31.7814H53.0886V44.7984C52.4918 44.7984 51.8877 44.8071 51.2851 44.7897C51.1937 44.7868 51.0949 44.6694 51.0151 44.5896C47.9644 41.5485 44.918 38.5031 41.8644 35.4663C41.2023 34.8079 40.5126 34.1757 39.8011 33.4984V44.7839H37.957V31.7625Z" fill="white"/>
<path d="M123.241 37.5024V38.9657H115.201V43.0727H115.577C118.726 43.0727 121.874 43.077 125.024 43.0654C125.352 43.0654 125.454 43.1553 125.433 43.4787C125.406 43.9022 125.426 44.3286 125.426 44.7825C125.308 44.7883 125.205 44.797 125.104 44.797C121.26 44.797 117.418 44.7941 113.575 44.8042C113.257 44.8042 113.186 44.7027 113.186 44.404C113.194 40.3144 113.193 36.2248 113.19 32.1338C113.19 31.9133 113.184 31.7523 113.498 31.7538C117.351 31.7639 121.205 31.7596 125.059 31.761C125.101 31.761 125.143 31.7668 125.208 31.7712V33.4172H115.192V37.501H123.238L123.241 37.5024Z" fill="white"/>
<path d="M23.4181 43.0814H33.6273V44.7767H21.5566V31.7784H33.4269V33.4201H23.4109V37.5024H31.4449V38.9758H23.4181V43.0814Z" fill="white"/>
<path d="M76.8116 31.7625V32.1439C76.8116 34.3903 76.8014 36.6367 76.8159 38.8831C76.8218 39.8837 77.0454 40.822 77.6901 41.637C78.2578 42.3549 79.0143 42.7537 79.8594 43.0002C80.7945 43.2729 81.7615 43.3773 82.7344 43.3222C83.9657 43.254 85.1781 43.0785 86.2309 42.365C87.1921 41.7124 87.7715 40.7727 87.8092 39.6386C87.8934 37.1646 87.8716 34.6862 87.892 32.2092C87.8963 31.7596 87.892 31.7596 88.3465 31.7596C88.8024 31.7596 89.2598 31.7596 89.7491 31.7596V32.0642C89.7491 34.3961 89.7738 36.7281 89.7389 39.06C89.7201 40.3289 89.4413 41.5457 88.6659 42.6029C88.1272 43.3396 87.4288 43.8558 86.5997 44.2314C85.2769 44.8289 83.8873 44.9899 82.4541 44.9972C81.1604 45.0044 79.8928 44.8985 78.6615 44.4809C77.8164 44.1937 77.0468 43.763 76.4152 43.1423C75.5933 42.336 75.1084 41.3267 74.9603 40.1868C74.7163 38.3175 74.8543 36.4366 74.8281 34.56C74.8165 33.729 74.8325 32.8995 74.8223 32.0685C74.8194 31.8322 74.8949 31.7495 75.1345 31.7553C75.6776 31.7698 76.2206 31.7596 76.8116 31.7596V31.7625Z" fill="white"/>
<path d="M0.00290405 31.7625C0.712943 31.7625 1.39249 31.7553 2.07058 31.7712C2.15625 31.7727 2.26806 31.88 2.32033 31.967C4.00758 34.7615 5.69048 37.5575 7.36901 40.3579C7.87867 41.2077 8.37091 42.0662 8.87186 42.9204C8.89364 42.9567 8.91687 42.9929 8.97495 43.0857C9.16662 42.7797 9.32925 42.5318 9.48026 42.278C10.7435 40.1665 12.0082 38.055 13.2657 35.9406C14.044 34.6325 14.8106 33.3171 15.5831 32.0061C15.6746 31.8495 15.7762 31.7451 15.9984 31.7538C16.5952 31.777 17.1919 31.7625 17.8584 31.7625C17.6479 32.1309 17.4678 32.463 17.2718 32.7864C16.2844 34.4193 15.2927 36.0493 14.3024 37.6808C13.2657 39.3921 12.2304 41.1062 11.1922 42.8174C10.8248 43.4236 10.4589 44.0313 10.0799 44.6302C10.0306 44.71 9.9086 44.7883 9.81858 44.7912C9.2218 44.8057 8.62356 44.8086 8.02678 44.7912C7.91643 44.7883 7.76397 44.6984 7.70588 44.6041C6.22192 42.1504 4.75247 39.6893 3.27141 37.2341C2.20998 35.475 1.13403 33.7246 0.066793 31.9699C0.0377526 31.9206 0.0304925 31.8582 0 31.764L0.00290405 31.7625Z" fill="white"/>
<path d="M71.0333 31.7843V33.4143H65.0437V44.797C64.4077 44.797 63.8037 44.8014 63.2011 44.7898C63.1474 44.7898 63.0733 44.6941 63.0501 44.6273C63.024 44.5519 63.0428 44.4591 63.0428 44.3736C63.0428 40.8597 63.0428 37.3473 63.0428 33.8334V33.4346H57.1113V31.7828L71.0333 31.7843Z" fill="white"/>
<path d="M63.602 26.2517H62.5508V19.601C62.5726 19.5923 62.5958 19.5822 62.6176 19.5735C62.7323 19.8302 62.8702 20.0782 62.9559 20.3435C63.1722 21.0121 63.3654 21.6864 63.5672 22.3593C63.5817 22.4101 63.6006 22.4609 63.602 22.5116C63.6035 23.753 63.6035 24.9944 63.6035 26.2503L63.602 26.2517Z" fill="white"/>
<path d="M59.2072 13.4579C59.7865 13.4579 60.3325 13.4028 60.8639 13.471C61.6771 13.5754 62.0909 14.2831 61.9718 15.3127C61.6684 15.1909 61.3838 15.0648 61.089 14.9661C60.9859 14.9313 60.8117 14.9197 60.7579 14.9777C60.6999 15.0416 60.7129 15.2098 60.7478 15.3127C60.8451 15.5999 60.9714 15.8769 61.0875 16.164C60.0276 16.4091 59.2101 15.7652 59.2057 14.7312C59.2043 14.3165 59.2057 13.9031 59.2057 13.4594L59.2072 13.4579Z" fill="white"/>
<path d="M69.9378 15.5202C69.9378 16.0611 69.9799 16.5745 69.9277 17.0777C69.8391 17.9391 69.0419 18.4307 68.0662 18.2393C68.1823 17.9493 68.3086 17.6708 68.403 17.3822C68.4393 17.2706 68.4001 17.1357 68.3958 17.011C68.2796 17.0168 68.1547 16.9965 68.0487 17.0327C67.7714 17.1285 67.5013 17.2488 67.2254 17.359C66.9641 16.5165 67.4941 15.613 68.3072 15.5289C68.8343 15.4752 69.3701 15.5187 69.9393 15.5187L69.9378 15.5202Z" fill="white"/>
</svg>
