<svg width="209" height="49" viewBox="0 0 209 49" fill="none" xmlns="http://www.w3.org/2000/svg">
<path d="M43.0192 48.5567C38.1853 48.7083 33.4017 48.2283 28.6853 47.1506C26.2347 46.5949 23.8849 45.6856 22.0134 43.9848C21.0987 43.1512 20.3601 42.0061 19.8398 40.861C18.8831 38.7477 18.1698 36.5248 17.297 34.3694C16.0465 31.2709 13.6296 29.0144 11.5567 26.5053C11.028 25.8654 10.5244 25.2002 9.98732 24.5772C9.56771 24.0888 9.16488 24.1309 8.95508 24.754C8.73688 25.3855 8.47672 26.0422 8.44315 26.6905C8.2753 29.9574 8.18299 33.2327 8.05711 36.508C8.04871 36.8195 8.05711 37.1311 8.04032 37.4426C8.02354 38.0825 7.83052 38.5709 7.06682 38.5793C6.31152 38.5793 6.13528 38.1246 6.1101 37.4594C6.03457 35.8007 6.001 34.142 5.80798 32.5002C5.43033 29.267 5.19535 25.9833 4.44844 22.8259C3.91133 20.5525 2.83713 18.3213 1.62864 16.3005C-0.0162394 13.5557 -0.452636 10.8277 0.68871 7.87232C1.69578 5.22851 3.06372 2.80361 5.26249 0.934418C6.38705 -0.0170179 6.91576 -0.176994 7.94801 0.808121C10.3062 3.06462 12.5889 5.3969 14.8464 7.75444C18.8999 11.9896 22.3743 16.671 25.6305 21.546C27.0572 23.6847 28.8447 25.5875 30.5316 27.5325C32.0589 29.2922 34.1318 30.2689 36.1879 31.2625C37.623 31.9529 39.0497 32.677 40.3841 33.5358C44.3452 36.0786 48.2896 38.655 52.1752 41.3073C53.476 42.1998 54.7516 43.227 55.7587 44.431C56.7909 45.6603 56.3713 46.898 54.8187 47.3022C52.6871 47.8663 50.4883 48.2704 48.298 48.5062C46.5524 48.6998 44.7732 48.5483 43.0108 48.5483L43.0192 48.5567ZM31.7149 36.609L31.7316 36.2891C29.5413 35.7165 27.7537 34.6051 26.4445 32.7275C23.2471 28.1303 20.0664 23.5163 16.7431 19.0117C15.5178 17.353 13.9065 15.9974 11.9259 15.1807C12.6561 16.8731 13.5372 18.456 14.2925 20.0894C16.5333 24.9645 19.1768 29.5617 22.9114 33.4937C25.1269 35.826 27.9048 36.4743 30.884 36.7774C31.1526 36.8027 31.4463 36.668 31.7233 36.609H31.7149Z" fill="white"/>
<path d="M45.8876 25.7728C44.9645 24.7792 44.4945 23.491 44.4945 21.8913V21.1924C44.4945 20.9903 44.5952 20.8893 44.7966 20.8893H46.2737C46.4751 20.8893 46.5758 20.9903 46.5758 21.1924V21.7986C46.5758 22.868 46.8443 23.7352 47.3898 24.3919C47.9353 25.0487 48.6403 25.377 49.5047 25.377C50.3691 25.377 51.0572 25.0655 51.6195 24.434C52.1818 23.811 52.4671 22.9774 52.4671 21.9502C52.4671 21.2598 52.3329 20.6704 52.0559 20.1736C51.7874 19.6769 51.4349 19.2474 50.9985 18.8686C50.5621 18.4981 49.8488 17.9255 48.8417 17.1593C47.8346 16.41 47.0374 15.7701 46.4583 15.2312C45.8708 14.6923 45.3925 14.0524 45.0232 13.3031C44.654 12.5537 44.4609 11.6781 44.4609 10.6677C44.4609 9.09319 44.9141 7.84706 45.8205 6.92088C46.7268 6.00313 47.9018 5.54004 49.3536 5.54004C50.881 5.54004 52.1063 6.03681 53.021 7.03876C53.9358 8.04071 54.3974 9.37104 54.3974 11.0213V11.7791C54.3974 11.9812 54.2967 12.0822 54.0952 12.0822H52.5846C52.3832 12.0822 52.2825 11.9812 52.2825 11.7791V10.9876C52.2825 9.91833 52.014 9.05109 51.4853 8.39435C50.9482 7.7376 50.2432 7.40923 49.3536 7.40923C48.548 7.40923 47.885 7.6955 47.3563 8.27647C46.8276 8.85743 46.5674 9.66573 46.5674 10.7182C46.5674 11.3413 46.6849 11.897 46.9115 12.3685C47.1465 12.84 47.4905 13.2947 47.9521 13.7156C48.4137 14.1366 49.1019 14.6923 50.0082 15.3828C51.2167 16.2753 52.1147 16.9909 52.7105 17.5466C53.3064 18.1024 53.7596 18.7086 54.0869 19.3653C54.4058 20.0221 54.5736 20.8135 54.5736 21.7481C54.5736 23.4068 54.1036 24.7371 53.1553 25.7307C52.207 26.7242 50.9901 27.2294 49.4963 27.2294C48.0025 27.2294 46.794 26.7326 45.8708 25.7475L45.8876 25.7728Z" fill="#FCFCFC"/>
<path d="M65.1724 12.7389C65.8438 13.5893 66.1879 14.7681 66.1879 16.2837V26.7073C66.1879 26.9094 66.0872 27.0105 65.8857 27.0105H64.3416C64.1402 27.0105 64.0394 26.9094 64.0394 26.7073V16.4605C64.0394 15.4669 63.8213 14.7007 63.3932 14.1535C62.9569 13.6062 62.361 13.3367 61.5973 13.3367C60.7916 13.3367 60.1622 13.6314 59.709 14.2124C59.2559 14.8018 59.0293 15.5932 59.0293 16.6036V26.6989C59.0293 26.901 58.9286 27.002 58.7272 27.002H57.183C56.9816 27.002 56.8809 26.901 56.8809 26.6989V6.10414C56.8809 5.90206 56.9816 5.80103 57.183 5.80103H58.7272C58.9286 5.80103 59.0293 5.90206 59.0293 6.10414V12.9578C59.0293 12.9578 59.0461 13.0252 59.088 13.0505C59.13 13.0673 59.1552 13.0505 59.1803 12.9915C59.5412 12.4863 60.0028 12.1074 60.5567 11.8549C61.1106 11.6023 61.698 11.476 62.3274 11.476C63.5527 11.476 64.5094 11.8969 65.1808 12.7473L65.1724 12.7389Z" fill="#FCFCFC"/>
<path d="M69.8895 25.9916C69.0335 25.1412 68.6055 24.0214 68.6055 22.6237V16.1068C68.6055 14.7344 69.0419 13.6146 69.9063 12.7389C70.7707 11.8717 71.9204 11.4338 73.3471 11.4338C74.7738 11.4338 75.9571 11.8717 76.8215 12.7389C77.6859 13.6061 78.1223 14.726 78.1223 16.1068V22.6237C78.1223 24.0214 77.6859 25.1412 76.8215 25.9916C75.9571 26.842 74.7989 27.263 73.3471 27.263C71.8952 27.263 70.7455 26.842 69.8895 25.9916ZM75.2353 24.5603C75.7305 24.0383 75.9739 23.3394 75.9739 22.4722V16.2247C75.9739 15.3575 75.7305 14.6502 75.2353 14.1197C74.7402 13.5809 74.1108 13.3199 73.3471 13.3199C72.5834 13.3199 71.954 13.5893 71.4756 14.1197C70.9889 14.6586 70.7539 15.3575 70.7539 16.2247V22.4722C70.7539 23.3394 70.9973 24.0383 71.4756 24.5603C71.9624 25.0823 72.5834 25.3517 73.3471 25.3517C74.1108 25.3517 74.7402 25.0907 75.2353 24.5603Z" fill="#FCFCFC"/>
<path d="M89.5452 20.1652H82.6552C82.5712 20.1652 82.5377 20.2073 82.5377 20.283V22.4974C82.5377 23.3478 82.7726 24.0383 83.251 24.5771C83.721 25.116 84.342 25.377 85.1057 25.377C85.7519 25.377 86.2974 25.1833 86.7506 24.7876C87.2038 24.3919 87.4975 23.8867 87.6402 23.2552C87.6989 23.07 87.808 22.9858 87.9758 22.9858L89.4865 23.0447C89.5704 23.0447 89.6375 23.0784 89.6963 23.1373C89.755 23.1963 89.7802 23.2805 89.755 23.3815C89.5955 24.5771 89.1088 25.5201 88.2864 26.219C87.4639 26.9178 86.4065 27.263 85.0973 27.263C83.6706 27.263 82.5209 26.842 81.6649 25.9916C80.8089 25.1412 80.3809 24.0214 80.3809 22.6237V16.0731C80.3809 14.7007 80.8089 13.5809 81.6649 12.7221C82.5209 11.8632 83.6622 11.4338 85.0973 11.4338C86.5324 11.4338 87.6989 11.8632 88.5549 12.7221C89.4109 13.5809 89.8389 14.7007 89.8389 16.0731V19.862C89.8389 20.0641 89.7382 20.1652 89.5368 20.1652H89.5452ZM83.2426 14.1197C82.7726 14.6586 82.5293 15.3575 82.5293 16.2247V18.2539C82.5293 18.3381 82.5712 18.3717 82.6468 18.3717H87.5982C87.6821 18.3717 87.7157 18.3296 87.7157 18.2539V16.2247C87.7157 15.3575 87.4723 14.6502 86.994 14.1197C86.5072 13.5809 85.8778 13.3199 85.0889 13.3199C84.3 13.3199 83.7042 13.5893 83.2342 14.1197H83.2426Z" fill="#FCFCFC"/>
<path d="M98.4969 25.9916C97.6409 25.1412 97.2129 24.0214 97.2129 22.6237V16.1068C97.2129 14.7344 97.6493 13.6146 98.5137 12.7389C99.3781 11.8717 100.528 11.4338 101.955 11.4338C103.381 11.4338 104.565 11.8717 105.429 12.7389C106.293 13.6061 106.73 14.726 106.73 16.1068V22.6237C106.73 24.0214 106.293 25.1412 105.429 25.9916C104.565 26.842 103.406 27.263 101.955 27.263C100.503 27.263 99.3529 26.842 98.4969 25.9916ZM103.843 24.5603C104.338 24.0383 104.581 23.3394 104.581 22.4722V16.2247C104.581 15.3575 104.338 14.6502 103.843 14.1197C103.348 13.5809 102.718 13.3199 101.955 13.3199C101.191 13.3199 100.561 13.5893 100.083 14.1197C99.5963 14.6586 99.3613 15.3575 99.3613 16.2247V22.4722C99.3613 23.3394 99.6047 24.0383 100.083 24.5603C100.57 25.0823 101.191 25.3517 101.955 25.3517C102.718 25.3517 103.348 25.0907 103.843 24.5603Z" fill="#FCFCFC"/>
<path d="M117.626 12.7389C118.297 13.5893 118.641 14.7681 118.641 16.2836V26.7073C118.641 26.9094 118.54 27.0104 118.339 27.0104H116.795C116.593 27.0104 116.493 26.9094 116.493 26.7073V16.4605C116.493 15.4669 116.274 14.7007 115.846 14.1534C115.41 13.6062 114.814 13.3367 114.05 13.3367C113.245 13.3367 112.615 13.6314 112.162 14.2124C111.709 14.8018 111.482 15.5932 111.482 16.6036V26.6989C111.482 26.901 111.382 27.002 111.18 27.002H109.636C109.435 27.002 109.334 26.901 109.334 26.6989V11.9811C109.334 11.7791 109.435 11.678 109.636 11.678H111.18C111.382 11.678 111.482 11.7791 111.482 11.9811V12.9494C111.482 12.9494 111.499 13.0168 111.541 13.042C111.583 13.0589 111.608 13.042 111.633 12.9831C111.994 12.4779 112.456 12.099 113.01 11.8464C113.564 11.5938 114.151 11.4675 114.781 11.4675C116.006 11.4675 116.963 11.8885 117.634 12.7389H117.626Z" fill="#FCFCFC"/>
<path d="M130.271 26.7495L125.891 6.13782V6.07888C125.891 5.89365 125.983 5.80945 126.159 5.80945H127.854C128.056 5.80945 128.165 5.90207 128.19 6.07888L131.455 23.0195C131.455 23.0195 131.497 23.0784 131.513 23.0784C131.53 23.0784 131.555 23.0616 131.572 23.0195L134.803 6.07888C134.845 5.89365 134.954 5.80945 135.139 5.80945H136.767C136.985 5.80945 137.077 5.91891 137.036 6.14624L132.655 26.7579C132.638 26.9431 132.521 27.0273 132.319 27.0273H130.599C130.414 27.0273 130.305 26.9347 130.263 26.7579L130.271 26.7495Z" fill="#FCFCFC"/>
<path d="M146.856 20.1652H139.966C139.882 20.1652 139.848 20.2073 139.848 20.283V22.4974C139.848 23.3478 140.083 24.0383 140.562 24.5771C141.032 25.116 141.653 25.377 142.416 25.377C143.062 25.377 143.608 25.1833 144.061 24.7876C144.514 24.3919 144.808 23.8867 144.951 23.2552C145.009 23.07 145.119 22.9858 145.286 22.9858L146.797 23.0447C146.881 23.0447 146.948 23.0784 147.007 23.1373C147.066 23.1963 147.091 23.2805 147.066 23.3815C146.906 24.5771 146.419 25.5201 145.597 26.219C144.774 26.9178 143.717 27.263 142.408 27.263C140.981 27.263 139.831 26.842 138.975 25.9916C138.119 25.1412 137.691 24.0214 137.691 22.6237V16.0731C137.691 14.7007 138.119 13.5809 138.975 12.7221C139.831 11.8632 140.973 11.4338 142.408 11.4338C143.843 11.4338 145.009 11.8632 145.865 12.7221C146.721 13.5809 147.149 14.7007 147.149 16.0731V19.862C147.149 20.0641 147.049 20.1652 146.847 20.1652H146.856ZM140.553 14.1197C140.083 14.6586 139.84 15.3575 139.84 16.2247V18.2539C139.84 18.3381 139.882 18.3717 139.957 18.3717H144.909C144.993 18.3717 145.026 18.3296 145.026 18.2539V16.2247C145.026 15.3575 144.783 14.6502 144.305 14.1197C143.818 13.5809 143.188 13.3199 142.399 13.3199C141.611 13.3199 141.015 13.5893 140.545 14.1197H140.553Z" fill="#FCFCFC"/>
<path d="M157.866 12.7389C158.537 13.5893 158.881 14.7681 158.881 16.2836V26.7073C158.881 26.9094 158.781 27.0104 158.579 27.0104H157.035C156.834 27.0104 156.733 26.9094 156.733 26.7073V16.4605C156.733 15.4669 156.515 14.7007 156.087 14.1534C155.65 13.6062 155.054 13.3367 154.291 13.3367C153.485 13.3367 152.856 13.6314 152.402 14.2124C151.949 14.8018 151.723 15.5932 151.723 16.6036V26.6989C151.723 26.901 151.622 27.002 151.421 27.002H149.876C149.675 27.002 149.574 26.901 149.574 26.6989V11.9811C149.574 11.7791 149.675 11.678 149.876 11.678H151.421C151.622 11.678 151.723 11.7791 151.723 11.9811V12.9494C151.723 12.9494 151.739 13.0168 151.781 13.042C151.823 13.0589 151.849 13.042 151.874 12.9831C152.235 12.4779 152.696 12.099 153.25 11.8464C153.804 11.5938 154.391 11.4675 155.021 11.4675C156.246 11.4675 157.203 11.8885 157.874 12.7389H157.866Z" fill="#FCFCFC"/>
<path d="M166.703 13.2862H164.403C164.319 13.2862 164.286 13.3283 164.286 13.4041V22.6827C164.286 23.6089 164.445 24.2572 164.772 24.6108C165.091 24.9645 165.586 25.1329 166.249 25.1076H166.551C166.753 25.1076 166.854 25.2087 166.854 25.4107V26.7158C166.854 26.9179 166.753 27.0189 166.551 27.0189H165.796C164.604 27.0189 163.706 26.7579 163.094 26.2443C162.481 25.7307 162.171 24.754 162.171 23.3226V13.4125C162.171 13.3283 162.129 13.2947 162.053 13.2947H160.878C160.677 13.2947 160.576 13.1936 160.576 12.9915V11.9896C160.576 11.7875 160.677 11.6865 160.878 11.6865H162.053C162.137 11.6865 162.171 11.6444 162.171 11.5686V8.17543C162.171 7.97335 162.271 7.87231 162.473 7.87231H163.983C164.185 7.87231 164.286 7.97335 164.286 8.17543V11.5686C164.286 11.6528 164.328 11.6865 164.403 11.6865H166.703C166.904 11.6865 167.005 11.7875 167.005 11.9896V12.9915C167.005 13.1936 166.904 13.2947 166.703 13.2947V13.2862Z" fill="#FCFCFC"/>
<path d="M176.219 11.6781H177.763C177.964 11.6781 178.065 11.7791 178.065 11.9812V26.7158C178.065 26.9179 177.964 27.0189 177.763 27.0189H176.219C176.017 27.0189 175.917 26.9179 175.917 26.7158V25.6886C175.917 25.6297 175.9 25.596 175.875 25.596C175.849 25.596 175.808 25.6128 175.766 25.6549C175.145 26.7074 174.137 27.2294 172.744 27.2294C171.536 27.2294 170.571 26.859 169.857 26.1265C169.144 25.3855 168.783 24.2741 168.783 22.7754V11.9812C168.783 11.7791 168.884 11.6781 169.085 11.6781H170.629C170.831 11.6781 170.932 11.7791 170.932 11.9812V22.287C170.932 23.2974 171.141 24.0636 171.553 24.5772C171.964 25.0908 172.568 25.3518 173.349 25.3518C174.129 25.3518 174.784 25.0571 175.237 24.4762C175.69 23.8868 175.917 23.0953 175.917 22.085V11.9896C175.917 11.7876 176.017 11.6865 176.219 11.6865V11.6781Z" fill="#FCFCFC"/>
<path d="M187.456 11.8633C187.599 11.9475 187.649 12.0738 187.607 12.259L187.246 13.8335C187.23 14.0187 187.104 14.0777 186.886 14.0187C186.642 13.9009 186.34 13.8335 185.979 13.8335C185.82 13.8335 185.694 13.8419 185.618 13.8672C184.897 13.9093 184.301 14.2882 183.839 15.0039C183.378 15.7195 183.143 16.5952 183.143 17.6224V26.7158C183.143 26.9179 183.042 27.0189 182.84 27.0189H181.296C181.095 27.0189 180.994 26.9179 180.994 26.7158V11.9812C180.994 11.7791 181.095 11.678 181.296 11.678H182.84C183.042 11.678 183.143 11.7791 183.143 11.9812V13.7998C183.143 13.8588 183.159 13.8924 183.185 13.8924C183.21 13.8924 183.252 13.8756 183.294 13.8335C183.881 12.3011 184.838 11.5265 186.164 11.5265C186.667 11.5265 187.104 11.6359 187.465 11.8633H187.456Z" fill="#FCFCFC"/>
<path d="M197.762 20.1652H190.872C190.788 20.1652 190.754 20.2073 190.754 20.283V22.4974C190.754 23.3478 190.989 24.0383 191.468 24.5771C191.938 25.116 192.559 25.377 193.322 25.377C193.969 25.377 194.514 25.1833 194.967 24.7876C195.421 24.3919 195.714 23.8867 195.857 23.2552C195.916 23.07 196.025 22.9858 196.193 22.9858L197.703 23.0447C197.787 23.0447 197.854 23.0784 197.913 23.1373C197.972 23.1963 197.997 23.2805 197.972 23.3815C197.812 24.5771 197.326 25.5201 196.503 26.219C195.681 26.9178 194.623 27.263 193.314 27.263C191.887 27.263 190.738 26.842 189.882 25.9916C189.026 25.1412 188.598 24.0214 188.598 22.6237V16.0731C188.598 14.7007 189.026 13.5809 189.882 12.7221C190.738 11.8632 191.879 11.4338 193.314 11.4338C194.749 11.4338 195.916 11.8632 196.772 12.7221C197.628 13.5809 198.056 14.7007 198.056 16.0731V19.862C198.056 20.0641 197.955 20.1652 197.754 20.1652H197.762ZM191.459 14.1197C190.989 14.6586 190.746 15.3575 190.746 16.2247V18.2539C190.746 18.3381 190.788 18.3717 190.864 18.3717H195.815C195.899 18.3717 195.932 18.3296 195.932 18.2539V16.2247C195.932 15.3575 195.689 14.6502 195.211 14.1197C194.724 13.5809 194.095 13.3199 193.306 13.3199C192.517 13.3199 191.921 13.5893 191.451 14.1197H191.459Z" fill="#FCFCFC"/>
<path d="M201.069 26.0927C200.23 25.377 199.818 24.4172 199.818 23.23V23.0195C199.818 22.8174 199.919 22.7164 200.12 22.7164H201.572C201.774 22.7164 201.874 22.8174 201.874 23.0195V23.2047C201.874 23.8531 202.109 24.4003 202.588 24.8382C203.058 25.2844 203.679 25.5033 204.442 25.5033C205.164 25.5033 205.752 25.2844 206.196 24.8382C206.641 24.3919 206.859 23.8278 206.859 23.1374C206.859 22.6153 206.717 22.1691 206.44 21.8155C206.155 21.4618 205.827 21.184 205.458 20.9819C205.089 20.7798 204.526 20.5188 203.78 20.1904C202.991 19.8705 202.344 19.5505 201.833 19.239C201.321 18.9275 200.876 18.4812 200.507 17.9087C200.137 17.3361 199.944 16.6036 199.944 15.7111C199.944 14.4145 200.339 13.3957 201.136 12.6463C201.933 11.897 203.007 11.5265 204.35 11.5265C205.693 11.5265 206.809 11.9138 207.615 12.68C208.42 13.4462 208.823 14.465 208.823 15.7448V15.8374C208.823 16.0395 208.723 16.1405 208.521 16.1405H207.128C206.927 16.1405 206.826 16.0395 206.826 15.8374V15.6522C206.826 14.9618 206.599 14.3976 206.146 13.9514C205.693 13.5051 205.105 13.2862 204.375 13.2862C203.645 13.2862 203.075 13.5136 202.638 13.9682C202.202 14.4229 201.992 14.987 201.992 15.6522C201.992 16.1405 202.126 16.5447 202.386 16.8815C202.647 17.2183 202.974 17.4877 203.352 17.6982C203.738 17.9087 204.266 18.1697 204.954 18.4728C205.777 18.8349 206.457 19.1801 206.994 19.5C207.531 19.82 207.992 20.2746 208.395 20.864C208.798 21.4534 208.999 22.1775 208.999 23.0448C208.999 24.2993 208.588 25.3013 207.757 26.0422C206.935 26.7916 205.81 27.162 204.401 27.162C202.991 27.162 201.9 26.8 201.06 26.0843L201.069 26.0927Z" fill="#FCFCFC"/>
</svg>
