<svg width="328" height="83" viewBox="0 0 328 83" fill="none" xmlns="http://www.w3.org/2000/svg">
<path d="M0.0176699 41.4646C3.10991 38.2995 6.18448 35.1344 9.22371 32.0223C12.528 35.3466 15.6379 38.4586 18.6948 41.5353C15.6732 44.559 12.581 47.6534 9.24138 50.9953C8.88798 50.5532 8.51691 50.0051 8.0575 49.5453C5.68972 47.1406 3.28661 44.7712 0.883497 42.3841C0.618448 42.1188 0.300389 41.9243 0 41.6945C0 41.6237 0 41.5353 0 41.4646H0.0176699Z" fill="white"/>
<path d="M25.9927 34.7277C22.7237 31.4565 19.6315 28.3445 16.5039 25.2147C25.0208 16.8334 33.6084 8.36366 42.09 0C50.4655 8.25756 59.0531 16.7273 67.5877 25.144C64.4425 28.2914 61.3502 31.3858 58.2226 34.4979C52.9393 29.2109 47.5853 23.8532 42.2313 18.4955C36.7183 24.0124 31.3467 29.3877 26.0103 34.7277H25.9927Z" fill="white"/>
<path d="M58.0981 48.1838C61.3847 51.4374 64.5123 54.5317 67.5162 57.5023C58.964 66.0428 50.4294 74.5479 42.0008 82.9823C33.6429 74.6363 25.126 66.1312 16.6621 57.6792C19.666 54.7262 22.8113 51.6319 26.0095 48.4844C31.1868 53.6653 36.5585 59.023 41.9125 64.3807C47.3548 58.9346 52.7088 53.5946 58.1158 48.2015L58.0981 48.1838Z" fill="white"/>
<path d="M103.033 9.28311C109.094 9.28311 115.084 9.01787 121.039 9.37152C125.509 9.63675 128.337 12.6781 128.725 16.6389C129.061 19.9985 127.736 22.6154 124.626 24.419C125.35 24.808 125.951 25.1263 126.552 25.4269C132.189 28.2561 131.535 36.8142 126.976 39.4488C124.979 40.5982 122.841 41.164 120.579 41.4116C119.855 41.4823 119.113 41.4823 118.371 41.4823C113.282 41.4823 108.193 41.4823 103.033 41.4823V9.28311ZM109.977 35.1344C113.282 35.1344 116.498 35.1698 119.714 35.1167C120.385 35.1167 121.092 34.8515 121.71 34.5509C123.795 33.5784 124.202 30.6255 122.382 29.2109C121.657 28.6451 120.632 28.2384 119.731 28.203C116.586 28.0615 113.441 28.0969 110.296 28.0792C110.19 28.0792 110.101 28.1676 109.977 28.2207V35.1167V35.1344ZM110.013 21.9258C112.981 21.9258 115.862 22.085 118.706 21.8728C120.756 21.7137 121.675 20.4405 121.657 18.637C121.657 16.8864 120.632 15.5779 118.636 15.4542C115.791 15.2597 112.928 15.4011 110.013 15.4011V21.9258Z" fill="white"/>
<path d="M235.964 20.971V41.3762H228.967V9.05327C231.034 9.05327 233.049 9.01791 235.063 9.08864C235.416 9.08864 235.823 9.54838 236.088 9.88434C240.647 15.8432 245.188 21.8021 249.729 27.761C249.976 28.0969 250.241 28.3975 250.683 28.9457V9.124H257.663V41.4647C255.754 41.4647 253.811 41.5177 251.902 41.4116C251.531 41.3939 251.143 40.8104 250.86 40.4214C246.16 34.2857 241.495 28.1323 236.795 21.9789C236.6 21.7314 236.406 21.5015 235.964 20.971Z" fill="white"/>
<path d="M183.944 41.4647C182.018 41.4647 180.198 41.5177 178.378 41.4293C177.989 41.4116 177.547 40.9519 177.265 40.5805C172.618 34.4979 167.988 28.4152 163.358 22.3149C163.058 21.9259 162.758 21.5369 162.263 20.918V41.3586H155.266V9.05327C157.315 9.05327 159.33 9.01791 161.344 9.08864C161.697 9.08864 162.122 9.53069 162.387 9.86665C166.928 15.7902 171.434 21.7314 175.957 27.6549C176.222 28.0085 176.523 28.3445 177 28.9634V9.10632H183.962V41.4647H183.944Z" fill="white"/>
<path d="M307.564 21.9966H322.76V28.3799H307.546V35.1875H325.057V41.5708H300.479V9.12402H324.81V15.3481H307.564V21.9789V21.9966Z" fill="white"/>
<path d="M223.437 41.4646C221.158 41.4646 218.949 41.4999 216.74 41.4292C216.44 41.4292 216.034 41.0402 215.892 40.7219C215.079 38.883 214.302 37.0264 213.56 35.1344C213.295 34.4801 212.977 34.1795 212.217 34.1795C208.259 34.2149 204.283 34.2149 200.325 34.1795C199.618 34.1795 199.318 34.4094 199.07 35.046C198.346 36.9203 197.569 38.7946 196.756 40.6335C196.614 40.9695 196.173 41.3938 195.837 41.4115C193.699 41.4823 191.561 41.4469 189.264 41.4469C189.476 40.8634 189.635 40.3683 189.847 39.8909C194.105 29.8651 198.381 19.857 202.622 9.81353C202.958 9.01784 203.347 8.68187 204.23 8.71724C205.785 8.78797 207.34 8.71724 208.895 8.77029C209.248 8.77029 209.796 9.08856 209.92 9.38916C214.443 19.9277 218.914 30.5016 223.384 41.0579C223.42 41.1286 223.384 41.1993 223.42 41.4469L223.437 41.4646ZM210.627 27.814C209.178 24.3129 207.799 20.9356 206.297 17.3108C204.796 20.9886 203.417 24.3483 202.004 27.814H210.627Z" fill="white"/>
<path d="M228.879 60.6321V64.2569H102.963V60.6321H228.897H228.879Z" fill="white"/>
<path d="M290.052 31.7925C291.448 33.154 292.827 34.5155 294.205 35.877C294.311 35.9831 294.399 36.1069 294.505 36.2307C289.222 43.2151 276.977 44.0816 270.191 37.9635C262.964 31.4565 262.805 19.6095 269.767 13.014C276.747 6.4009 289.24 7.51487 294.293 13.5975C292.844 15.2773 291.378 16.9748 289.858 18.743C287.084 16.1968 283.974 14.6761 280.193 15.1889C277.949 15.4895 276.058 16.5328 274.591 18.2479C271.163 22.2441 271.269 28.8042 274.803 32.5705C278.602 36.6374 283.762 36.3721 290.052 31.8101V31.7925Z" fill="white"/>
<path d="M301.38 62.082C301.751 62.2588 302.139 62.4356 302.511 62.6124C304.525 63.6203 305.638 65.194 305.638 67.5104C305.638 69.8798 304.684 71.6834 302.564 72.6913C301.362 73.2571 300.001 73.7345 298.676 73.7699C294.683 73.9113 290.672 73.8229 286.572 73.8229V50.9422C288.551 50.9422 290.477 50.9069 292.421 50.9422C294.824 51.013 297.263 50.8892 299.613 51.3136C303.624 52.0385 305.55 56.1054 303.641 59.4827C303.111 60.4199 302.192 61.1625 301.397 62.0643L301.38 62.082ZM290.513 70.3749C292.969 70.3749 295.337 70.3749 297.704 70.3749C298.093 70.3749 298.482 70.2865 298.853 70.2158C300.638 69.8268 301.574 68.8189 301.609 67.2629C301.645 65.6715 300.779 64.4691 298.924 64.3276C296.167 64.1154 293.375 64.2746 290.53 64.2746V70.3926L290.513 70.3749ZM290.495 60.579C292.845 60.579 295.036 60.5967 297.245 60.5613C297.687 60.5613 298.146 60.3491 298.57 60.1546C299.789 59.6065 300.426 58.5456 300.337 57.2901C300.249 56.0701 299.56 55.0091 298.234 54.85C295.69 54.5671 293.11 54.5494 290.495 54.4256V60.579Z" fill="white"/>
<path d="M145.495 41.4116H138.498V9.14172H145.495V41.4116Z" fill="white"/>
<path d="M258.211 73.876C259.289 71.3828 260.278 69.0841 261.286 66.7855C263.494 61.7461 265.721 56.7243 267.894 51.6672C268.194 50.9776 268.566 50.8539 269.255 50.7478C271.322 50.4472 272.329 51.1721 273.16 53.1879C275.846 59.7833 278.814 66.2727 281.659 72.7974C281.8 73.098 281.871 73.434 282.03 73.876C280.758 73.876 279.592 73.9291 278.443 73.8406C278.143 73.823 277.736 73.434 277.595 73.1157C276.994 71.8249 276.446 70.4987 275.916 69.1549C275.687 68.5714 275.351 68.3415 274.715 68.3592C271.64 68.3945 268.583 68.3592 265.509 68.4122C265.12 68.4122 264.59 68.7836 264.413 69.1372C263.759 70.4103 263.229 71.7365 262.681 73.0626C262.452 73.6285 262.169 73.9291 261.498 73.8937C260.49 73.823 259.483 73.8937 258.229 73.8937L258.211 73.876ZM270.103 55.5927C268.742 58.7755 267.488 61.693 266.198 64.7167H274.079C272.771 61.693 271.499 58.7755 270.103 55.5927Z" fill="white"/>
<path d="M309.225 70.6932C310.108 69.6676 310.868 68.7835 311.645 67.8641C312.441 68.4122 313.165 68.978 313.96 69.4201C315.975 70.5871 318.13 71.0999 320.445 70.6048C322.035 70.2688 322.936 69.3317 323.042 68.0232C323.149 66.7147 322.512 65.7776 320.904 65.2117C319.367 64.6813 317.777 64.3099 316.204 63.8502C315.497 63.638 314.791 63.4082 314.119 63.1252C311.804 62.1881 310.355 60.5967 310.214 57.9974C310.073 55.1683 311.151 53.011 313.695 51.6849C317.317 49.7929 323.149 50.677 326.276 53.6122C325.587 54.5671 324.898 55.5396 324.173 56.5475C322.336 55.3097 320.48 54.2488 318.254 54.2488C317.494 54.2488 316.681 54.3195 315.975 54.5494C314.95 54.8677 314.278 55.6103 314.19 56.7597C314.084 57.909 314.561 58.7931 315.568 59.2175C316.84 59.7656 318.201 60.137 319.509 60.579C320.798 61.0211 322.124 61.357 323.361 61.9052C325.799 62.9661 327.107 64.8404 327.018 67.5635C326.912 70.2865 325.693 72.3907 323.131 73.3986C318.024 75.4143 313.483 73.9998 309.225 70.6932Z" fill="white"/>
<path d="M51.1187 41.5177C48.0794 44.5414 44.9695 47.6358 41.9656 50.624C38.9441 47.6181 35.8518 44.5414 32.7949 41.5C35.8342 38.4764 38.9441 35.382 42.001 32.3407C44.9872 35.3467 48.0794 38.441 51.1187 41.5V41.5177Z" fill="white"/>
<path d="M74.3912 50.6594C71.3873 47.6711 68.2774 44.6121 65.2559 41.6238C68.3481 38.5294 71.458 35.4527 74.4972 32.4114C77.4305 35.3643 80.5227 38.4764 83.5619 41.553C80.5934 44.506 77.4658 47.6003 74.3736 50.6594H74.3912Z" fill="white"/>
<path d="M254.642 70.2335V73.7699H238.668V51.0483H242.573V70.2335H254.642Z" fill="white"/>
</svg>
