<svg width="338" height="56" viewBox="0 0 338 56" fill="none" xmlns="http://www.w3.org/2000/svg">
<path d="M22.7219 36.0088H16.0262V54.7887H0V0.654297H27.1212C33.8653 0.654297 39.0139 2.15668 42.5431 5.16146C46.0722 8.16623 47.8368 12.5765 47.8368 18.3679C47.8368 26.2433 44.5494 31.5017 37.9504 34.1914L50.8583 54.7887H32.9467L22.6977 36.0331L22.7219 36.0088ZM16.0503 24.6198H24.003C26.6619 24.6198 28.5957 24.1594 29.7076 23.2628C30.8196 22.3662 31.3755 20.8638 31.3755 18.7799C31.3755 16.6959 30.7954 15.2178 29.6351 14.2727C28.4749 13.3277 26.5894 12.8672 23.9788 12.8672H16.0503V24.5956V24.6198Z" fill="white"/>
<path d="M66.0871 54.7644H50.8828L69.6646 0.654297H84.8206L66.0871 54.7644Z" fill="white"/>
<path d="M90.7426 54.7644H75.5625L94.3201 0.654297H109.524L90.7426 54.7644Z" fill="white"/>
<path d="M136.331 21.9542L131.666 13.5699H129.901V21.9542L124.825 21.9785V0.848121L132.995 0.823889C134.01 0.823889 135.05 0.920817 136.041 1.13891C137.032 1.35699 137.902 1.69624 138.676 2.20512C139.449 2.71399 140.078 3.34402 140.537 4.16791C140.996 4.9918 141.238 6.00955 141.238 7.22115C141.238 8.65084 140.827 9.86244 140.054 10.856C139.28 11.8252 138.168 12.528 136.766 12.9641L142.398 22.0027H136.331V21.9542ZM136.089 7.26961C136.089 6.76074 135.993 6.37303 135.775 6.05801C135.557 5.74299 135.267 5.50067 134.929 5.35528C134.591 5.20989 134.228 5.0645 133.817 5.01603C133.406 4.94334 133.019 4.9191 132.608 4.9191H129.853V9.86244H132.294C132.729 9.86244 133.164 9.83821 133.6 9.76551C134.035 9.69282 134.446 9.57166 134.808 9.40203C135.171 9.20818 135.461 8.96585 135.703 8.62661C135.944 8.28736 136.065 7.85118 136.065 7.29384L136.089 7.26961ZM147.402 21.93V0.775425L161.833 0.751193V5.08873H152.381V9.08702H161.301V13.158H152.381V17.544H162.389V21.8815H147.402V21.93ZM187.165 18.9495C186.198 20.0399 185.038 20.8638 183.636 21.5181C182.234 22.1481 180.639 22.4873 178.802 22.4873C177.134 22.4873 175.611 22.245 174.185 21.6877C172.783 21.1546 171.55 20.3791 170.535 19.4099C169.519 18.4164 168.673 17.229 168.093 15.872C167.513 14.515 167.199 12.9884 167.199 11.3406C167.199 9.69282 167.489 8.11773 168.093 6.73651C168.673 5.37951 169.519 4.19214 170.583 3.22286C171.647 2.25358 172.879 1.52662 174.306 0.993514C175.732 0.460409 177.255 0.218088 178.898 0.218088C180.421 0.218088 181.896 0.460409 183.394 0.993514C184.845 1.52662 186.053 2.30204 186.948 3.29556L183.418 6.78497C182.911 6.13071 182.307 5.64607 181.509 5.33105C180.711 5.01603 179.889 4.87064 179.067 4.87064C178.173 4.87064 177.327 5.01603 176.554 5.37951C175.78 5.74299 175.127 6.15494 174.596 6.73651C174.04 7.31808 173.629 8.02081 173.314 8.79623C173 9.57166 172.855 10.444 172.855 11.3648C172.855 12.2856 173 13.2065 173.314 14.0061C173.629 14.8058 174.015 15.5085 174.596 16.0658C175.127 16.6232 175.78 17.0594 176.505 17.3986C177.255 17.7136 178.076 17.859 178.947 17.859C179.962 17.859 180.856 17.6409 181.63 17.2774C182.403 16.8655 183.032 16.3566 183.491 15.7266L187.165 18.9979V18.9495ZM191.83 21.8573V0.702729H197.027V21.8573H191.83ZM220.209 7.14845C220.209 8.38429 219.991 9.42626 219.532 10.2744C219.072 11.1225 218.444 11.801 217.646 12.3341C216.873 12.8672 215.954 13.2307 214.915 13.473C213.875 13.7153 212.812 13.8365 211.7 13.8365H209.138V21.8088H203.941V0.678497H211.797C212.981 0.678497 214.069 0.799657 215.084 1.01775C216.099 1.23583 216.994 1.59931 217.743 2.10819C218.517 2.61706 219.097 3.29556 219.532 4.09521C219.991 4.89487 220.209 5.93685 220.209 7.14845ZM215.012 7.19692C215.012 6.68804 214.915 6.30033 214.697 5.98531C214.48 5.6703 214.238 5.42798 213.851 5.23412C213.513 5.04026 213.102 4.9191 212.667 4.89487C212.232 4.82218 211.772 4.79794 211.313 4.79794H209.017V9.78974H211.216C211.724 9.78974 212.183 9.76551 212.618 9.66858C213.054 9.57166 213.465 9.4505 213.827 9.23241C214.166 9.03855 214.456 8.772 214.673 8.43275C214.915 8.0935 215.012 7.68156 215.012 7.19692ZM237.298 21.7604L232.633 13.3761H230.869V21.7604H225.792V0.630033L233.963 0.605801C234.978 0.605801 236.017 0.702729 237.008 0.920817C237.999 1.13891 238.869 1.47815 239.643 1.98703C240.417 2.4959 241.045 3.12593 241.504 3.94982C241.964 4.77371 242.205 5.79146 242.205 7.00306C242.205 8.43275 241.794 9.64435 241.021 10.6379C240.247 11.6071 239.135 12.3099 237.733 12.7461L243.366 21.7846H237.298V21.7604ZM237.057 7.07576C237.057 6.56688 236.96 6.17917 236.742 5.86415C236.525 5.54914 236.235 5.30682 235.896 5.16142C235.558 5.01603 235.195 4.87064 234.784 4.82218C234.373 4.74948 233.987 4.72525 233.576 4.72525H230.82V9.66858H233.262C233.697 9.66858 234.132 9.64435 234.567 9.57166C235.002 9.49896 235.413 9.3778 235.775 9.20817C236.138 9.03855 236.428 8.772 236.67 8.43275C236.96 8.0935 237.032 7.65732 237.032 7.09999L237.057 7.07576ZM270.753 11.0256C270.753 12.6976 270.463 14.2242 269.882 15.6297C269.302 17.0351 268.48 18.1983 267.441 19.1918C266.377 20.1853 265.145 20.9365 263.719 21.4938C262.292 22.0269 260.721 22.2935 259.053 22.2935C257.385 22.2935 255.838 22.0512 254.388 21.4938C252.962 20.9607 251.729 20.1853 250.666 19.216C249.602 18.2225 248.804 17.0351 248.224 15.6781C247.644 14.2727 247.33 12.7703 247.33 11.074C247.33 9.3778 247.62 7.85118 248.2 6.46995C248.78 5.11296 249.602 3.94982 250.641 2.98054C251.705 2.01126 252.914 1.2843 254.364 0.775425C255.814 0.266552 257.337 0 259.029 0C260.721 0 262.292 0.24232 263.694 0.775425C265.121 1.30853 266.377 2.01126 267.417 2.98054C268.48 3.94982 269.278 5.08873 269.858 6.46995C270.487 7.77848 270.753 9.32934 270.753 11.0013V11.0256ZM265.217 11.0256C265.217 10.1048 265.072 9.25664 264.758 8.45698C264.444 7.65732 264.057 6.9546 263.477 6.39726C262.945 5.83992 262.292 5.37951 261.519 5.0645C260.745 4.72525 259.899 4.55562 259.005 4.55562C258.111 4.55562 257.265 4.70102 256.515 5.0645C255.766 5.42798 255.113 5.83992 254.557 6.39726C254.001 6.9546 253.59 7.63309 253.276 8.45698C252.986 9.25664 252.841 10.1048 252.841 11.0256C252.841 11.9464 252.986 12.8672 253.3 13.6669C253.615 14.4665 254.001 15.1693 254.581 15.7508C255.113 16.3324 255.766 16.7686 256.491 17.1078C257.24 17.4471 258.062 17.6167 258.981 17.6167C259.899 17.6167 260.721 17.4713 261.471 17.1078C262.22 16.7443 262.873 16.3324 263.428 15.7508C263.984 15.1693 264.395 14.4665 264.71 13.6669C265.048 12.8914 265.217 11.9949 265.217 11.0256ZM295.553 18.7314C294.586 19.8218 293.426 20.6457 292.024 21.3C290.622 21.93 289.027 22.2692 287.19 22.2692C285.522 22.2692 283.999 22.0269 282.573 21.4696C281.171 20.9365 279.938 20.1611 278.923 19.1918C277.908 18.1983 277.062 17.0109 276.481 15.6539C275.901 14.2969 275.587 12.7703 275.587 11.1225C275.587 9.47473 275.877 7.89964 276.481 6.51842C277.062 5.16142 277.908 3.97405 278.971 3.00477C280.035 2.03549 281.268 1.30853 282.694 0.775425C284.12 0.24232 285.643 0 287.286 0C288.809 0 290.284 0.24232 291.782 0.775425C293.233 1.30853 294.441 2.08396 295.336 3.07747L291.807 6.56688C291.299 5.91262 290.695 5.42798 289.897 5.11296C289.099 4.79794 288.277 4.65255 287.456 4.65255C286.561 4.65255 285.715 4.79794 284.942 5.16142C284.168 5.52491 283.516 5.93685 282.984 6.51842C282.428 7.09999 282.017 7.80272 281.703 8.57814C281.388 9.35357 281.243 10.2259 281.243 11.1467C281.243 12.0676 281.388 12.9884 281.703 13.788C282.017 14.5877 282.404 15.2904 282.984 15.8478C283.516 16.4051 284.168 16.8413 284.893 17.1805C285.643 17.4955 286.465 17.6409 287.335 17.6409C288.35 17.6409 289.244 17.4228 290.018 17.0594C290.791 16.6474 291.42 16.1385 291.879 15.5085L295.553 18.7798V18.7314ZM314.456 21.615L312.788 17.4471H304.449L302.878 21.6392H297.245L306.213 0.460409H311.265L320.257 21.615H314.456ZM308.63 6.10647L305.899 13.3761H311.314L308.63 6.10647ZM324.439 21.5907V0.436177H329.636V17.1321L338 17.1078V21.5423H324.439V21.5907ZM137.395 55.0067H132.198L124.027 33.8522H129.853L134.881 48.8518H135.002L139.933 33.8522H145.661L137.419 55.0067H137.395ZM149.867 54.9825V33.8279L164.298 33.8037V38.1412H154.847V42.1395H163.766V46.2105H154.847V50.6207H164.854V54.9583H149.867V54.9825ZM184.41 54.934L175.732 41.1218H175.635L175.78 54.9583H170.728V33.8037H176.602L185.231 47.5917H185.328L185.183 33.7795H190.235V54.934H184.385H184.41ZM206.334 38.0928V54.8856H201.161V38.0928H195.069V33.7068H212.425V38.0443H206.358L206.334 38.0928ZM235.485 46.8405C235.485 48.1248 235.268 49.2637 234.833 50.3299C234.398 51.3962 233.769 52.2927 232.971 53.0197C232.174 53.7467 231.183 54.3525 230.022 54.7644C228.886 55.2006 227.605 55.3944 226.203 55.3944C224.801 55.3944 223.52 55.1764 222.36 54.7644C221.2 54.3525 220.257 53.7709 219.483 53.0197C218.686 52.2685 218.081 51.3719 217.646 50.3299C217.211 49.288 216.994 48.1248 216.994 46.8405V33.6825H222.142V46.4528C222.167 47.0344 222.263 47.5675 222.384 48.1006C222.529 48.6337 222.747 49.0941 223.085 49.5061C223.399 49.918 223.834 50.2572 224.318 50.4753C224.85 50.7177 225.454 50.8146 226.179 50.8146C226.904 50.8146 227.533 50.6934 228.04 50.4511C228.548 50.2088 228.959 49.8938 229.321 49.4818C229.636 49.0699 229.877 48.6095 229.998 48.0764C230.143 47.5433 230.216 47.0102 230.216 46.4286V33.6583H235.389L235.461 46.8648L235.485 46.8405ZM253.639 54.8129L248.973 46.4286H247.209V54.8129H242.133V33.6583L250.303 33.6341C251.318 33.6341 252.358 33.731 253.349 33.9491C254.34 34.1672 255.21 34.5064 255.983 35.0153C256.757 35.5242 257.385 36.1542 257.845 36.9781C258.304 37.7778 258.546 38.8197 258.546 40.0313C258.546 41.461 258.135 42.6726 257.361 43.6661C256.588 44.6354 255.476 45.3381 254.074 45.7743L259.706 54.8129H253.639ZM253.373 40.104C253.373 39.5951 253.276 39.2074 253.059 38.8924C252.841 38.5774 252.551 38.3351 252.213 38.1897C251.874 38.0443 251.512 37.8989 251.101 37.8504C250.69 37.802 250.303 37.7535 249.892 37.7535H247.136V42.6969H249.578C250.013 42.6969 250.448 42.6726 250.883 42.5999C251.318 42.5272 251.729 42.4061 252.092 42.2364C252.454 42.0426 252.744 41.8003 252.986 41.461C253.228 41.1218 253.349 40.6614 253.349 40.1283L253.373 40.104ZM264.685 54.7644V33.6098L279.116 33.5856V37.9231H269.665V41.9214H278.584V45.9924H269.665V50.4026H279.672V54.7402H264.685V54.7644ZM296.907 39.062C296.472 38.5047 295.892 38.0685 295.167 37.7293C294.466 37.39 293.74 37.2204 293.088 37.2204C292.749 37.2204 292.411 37.2446 292.024 37.3173C291.686 37.39 291.347 37.5112 291.057 37.6566C290.767 37.802 290.526 38.0685 290.356 38.3109C290.163 38.6016 290.066 38.9409 290.066 39.3286C290.066 39.6921 290.139 39.9829 290.284 40.2252C290.429 40.4675 290.646 40.6614 290.961 40.8552C291.251 41.0491 291.613 41.1945 292.024 41.3641C292.435 41.5095 292.894 41.6791 293.378 41.8245C294.127 42.0668 294.876 42.3334 295.674 42.5999C296.472 42.8907 297.197 43.2784 297.85 43.7388C298.502 44.1992 299.034 44.805 299.469 45.5078C299.904 46.2105 300.122 47.0829 300.122 48.1491C300.122 49.3607 299.904 50.4269 299.445 51.3235C298.986 52.22 298.381 52.947 297.608 53.5286C296.834 54.1101 295.964 54.5463 294.973 54.8371C293.982 55.1279 292.967 55.2733 291.903 55.2733C290.356 55.2733 288.858 55.031 287.431 54.4979C286.005 53.9648 284.797 53.2136 283.83 52.2685L287.238 48.8518C287.77 49.5061 288.447 50.0392 289.317 50.4269C290.187 50.863 291.009 51.0811 291.879 51.0811C292.242 51.0811 292.653 51.0569 292.991 50.96C293.354 50.8631 293.668 50.7419 293.958 50.548C294.248 50.3542 294.466 50.1119 294.611 49.8453C294.756 49.5303 294.852 49.191 294.852 48.7549C294.852 48.3429 294.756 48.0037 294.538 47.7371C294.321 47.4463 294.03 47.204 293.668 46.9859C293.305 46.7678 292.822 46.5497 292.266 46.3559C291.71 46.162 291.081 45.944 290.38 45.7259C289.704 45.5078 289.027 45.2654 288.374 44.9504C287.722 44.6354 287.141 44.2719 286.61 43.8115C286.078 43.3511 285.691 42.7938 285.377 42.1153C285.063 41.461 284.918 40.6129 284.918 39.6921C284.918 38.5047 285.159 37.5112 285.619 36.6873C286.126 35.8392 286.73 35.1607 287.528 34.6034C288.302 34.0702 289.196 33.6825 290.187 33.416C291.178 33.1737 292.169 33.0525 293.184 33.0525C294.393 33.0525 295.626 33.2706 296.907 33.7068C298.188 34.1429 299.3 34.7972 300.243 35.6211L296.834 39.062H296.907Z" fill="white"/>
</svg>
