<svg width="171" height="29" viewBox="0 0 171 29" fill="none" xmlns="http://www.w3.org/2000/svg">
<path d="M103.067 0.176201C103.299 0.478643 103.225 0.822801 103.225 1.15653C103.225 6.94465 103.225 12.7328 103.225 18.5105C103.225 21.5766 103.225 24.6323 103.225 27.6984V28.6162H100.205C99.8877 27.688 99.9406 26.6347 99.6871 25.5813C99.5603 25.7065 99.4124 25.8108 99.3068 25.9568C98.0922 27.4481 96.4867 28.3033 94.6277 28.7413C94.3848 28.8039 94.1102 28.7831 93.8567 28.7935C93.0223 28.7935 92.1773 28.7935 91.3429 28.7935C89.4628 28.7935 87.8151 28.1156 86.3363 27.0414C84.2978 25.5709 83.1465 23.506 82.6818 21.1177C82.1537 18.4166 82.2804 15.7155 83.5056 13.1708C84.6886 10.7095 86.6109 9.02003 89.2621 8.16484C91.3323 7.48696 93.4447 7.4661 95.5361 8.02927C97.1732 8.46729 98.5886 9.30161 99.5709 10.7304C99.6026 10.7721 99.6554 10.793 99.6871 10.8138C99.6659 10.3237 99.6342 9.82306 99.6342 9.32247C99.6342 6.5692 99.6342 3.81594 99.6342 1.0731C99.6342 0.770656 99.7293 0.468214 99.7716 0.165771C100.87 0.165771 101.969 0.165771 103.067 0.165771V0.176201ZM86.0828 18.208C85.9878 19.6785 86.273 21.0969 87.0229 22.4109C87.8784 23.9127 89.0825 25.0495 90.8147 25.5083C91.8393 25.7795 92.8638 25.9255 93.9517 25.7378C95.3565 25.4979 96.5817 24.966 97.5957 23.9857C98.9899 22.6404 99.592 20.9196 99.7399 19.0528C99.8561 17.6344 99.6237 16.2474 99.085 14.9124C98.7787 14.1407 98.3985 13.4211 97.8175 12.8266C96.0959 11.0537 94.0151 10.4384 91.5647 10.866C89.0403 11.3144 87.4559 12.8162 86.5476 15.1002C86.1462 16.0909 86.03 17.113 86.0828 18.1976V18.208Z" fill="white"/>
<path d="M22.5294 0.176147C22.5716 0.280438 22.6667 0.384728 22.6667 0.47859C22.6667 1.43806 22.6667 2.39753 22.6667 3.43001C22.3181 3.43001 22.0329 3.43001 21.7583 3.43001C18.3784 3.43001 15.009 3.43001 11.6291 3.43001C10.425 3.43001 9.46381 3.86803 8.80895 4.9005C7.45697 7.02803 9.31594 9.40585 11.1643 9.38499C11.9671 9.38499 12.7804 9.38499 13.5831 9.38499C16.2976 9.38499 19.0121 9.38499 21.7161 9.38499C22.0012 9.38499 22.2759 9.40585 22.5927 9.41628C22.7512 9.96902 22.6561 10.48 22.6772 10.9806C22.6984 11.4917 22.6772 11.9922 22.6772 12.4511C22.6244 12.5241 22.6033 12.545 22.5822 12.5658C22.561 12.5867 22.5294 12.5971 22.5082 12.5971C18.7903 12.5971 15.0724 12.5971 11.3333 12.691C11.5551 12.7744 11.7875 12.837 11.9776 12.9517C12.7064 13.3689 13.055 14.0259 13.1395 14.8289C13.1606 15.0271 13.1395 15.2253 13.1395 15.4234C13.1395 19.5012 13.1395 23.5893 13.1395 27.6671V28.5953C11.9565 28.6161 10.8263 28.6266 9.65393 28.637C9.38987 28.418 9.52718 28.0843 9.52718 27.7922C9.52718 23.6519 9.52718 19.5116 9.52718 15.3713V14.4744C9.242 14.0885 8.8512 14.1406 8.48152 14.1406C5.96769 14.1406 3.46443 14.1406 0.950606 14.1406C0.633737 14.1406 0.316869 14.1198 0 14.1093V11.0432C2.74619 11.0328 5.49239 11.0119 8.4287 11.0015C8.00621 10.8659 7.76328 10.8033 7.52035 10.7095C6.81267 10.4383 6.16838 10.042 5.74588 9.41628C4.80584 7.99793 4.54178 6.38143 4.9009 4.78578C5.32339 2.84598 6.51693 1.39635 8.46039 0.645454C8.93569 0.47859 9.411 0.332583 9.8863 0.176147C14.1007 0.176147 18.315 0.176147 22.5294 0.176147Z" fill="white"/>
<path d="M28.7613 0.176147C28.7613 0.457732 28.7824 0.739316 28.7824 1.0209C28.7824 9.9273 28.7824 18.8233 28.7824 27.7297C28.7824 28.0113 28.7824 28.2824 28.7824 28.5953H25.2969V0.176147C26.4587 0.176147 27.61 0.176147 28.7613 0.176147Z" fill="white"/>
<path d="M149.488 0.176201C149.488 0.426497 149.509 0.687223 149.509 0.93752C149.509 9.92735 149.509 18.9172 149.509 27.907V28.491C148.907 28.6579 147.196 28.6892 146.024 28.5536C146.024 28.3763 146.003 28.1782 145.992 27.9904C145.992 18.938 145.992 9.89606 145.992 0.843659C145.992 0.61422 146.003 0.39521 146.013 0.165771C147.165 0.165771 148.326 0.165771 149.478 0.165771L149.488 0.176201Z" fill="white"/>
<path d="M72.1817 28.585C70.534 23.5582 68.8968 18.5418 67.2491 13.4941C67.1857 13.6402 67.1012 13.7757 67.0484 13.9113C65.707 17.8431 64.3761 21.7852 63.0242 25.717C62.6967 26.666 62.3271 27.6046 61.9679 28.585H58.25C57.4895 26.3531 56.7607 24.0588 56.0214 21.7748C55.2715 19.4491 54.5215 17.1339 53.761 14.8082C53.0111 12.5242 52.219 10.2611 51.543 7.88332H55.1553C56.0108 10.6157 56.8558 13.3481 57.7113 16.0701C58.5563 18.7608 59.4119 21.4515 60.3202 24.3195C62.1581 18.7295 63.9325 13.3273 65.7176 7.87289C66.7949 7.79989 67.8195 7.85203 68.9285 7.83118C70.629 13.3064 72.3295 18.7712 74.0618 24.3195C75.8574 18.8025 77.6318 13.369 79.4274 7.85203C80.0295 7.85203 80.5998 7.83118 81.1702 7.83118C81.7405 7.83118 82.3109 7.83118 82.9763 7.83118C80.6104 14.7978 78.2656 21.6705 75.9207 28.5745H72.1922L72.1817 28.585Z" fill="white"/>
<path d="M108.801 19.0527C108.939 20.4085 109.076 21.6391 109.71 22.7446C110.639 24.3611 112.033 25.331 113.882 25.7169C115.001 25.9463 116.11 25.915 117.209 25.6543C119.163 25.1954 120.483 23.9961 121.212 22.171C121.413 21.66 121.413 21.6496 121.909 21.6496C122.881 21.6496 123.853 21.6496 124.898 21.6496C124.602 23.0262 124.138 24.2047 123.367 25.2684C122.057 27.0518 120.293 28.1886 118.117 28.6996C117.843 28.7622 117.547 28.7935 117.272 28.8039C116.29 28.8143 115.308 28.8039 114.325 28.8039C112.297 28.8039 110.523 28.0634 108.96 26.8432C106.699 25.0807 105.601 22.7133 105.305 19.9392C105.231 19.2092 105.136 18.4791 105.178 17.7491C105.295 15.6216 105.791 13.5879 107.027 11.7837C108.537 9.58316 110.639 8.28996 113.269 7.83108C115.498 7.43478 117.663 7.67465 119.744 8.56112C121.117 9.14514 122.236 10.0629 123.155 11.2205C124.106 12.4199 124.687 13.7861 125.004 15.267C125.247 16.4038 125.3 17.5614 125.204 18.719C125.204 18.8233 125.12 18.9172 125.046 19.0632H108.791L108.801 19.0527ZM121.624 16.1326C121.539 15.6946 121.487 15.34 121.402 14.9854C121.043 13.6296 120.325 12.5137 119.099 11.7524C117.388 10.6782 115.508 10.4279 113.575 10.9285C111.262 11.5334 109.815 13.0665 109.171 15.3191C109.097 15.5694 109.171 15.851 109.171 16.1326H121.634H121.624Z" fill="white"/>
<path d="M41.5091 28.7935C41.0866 28.7935 40.8014 28.7935 40.5163 28.7935C38.6467 28.8457 36.9779 28.2408 35.4147 27.2709C33.3022 25.9464 32.0559 24.017 31.3482 21.7018C31.0102 20.6171 30.8835 19.4804 30.9046 18.3749C30.9574 15.8094 31.5172 13.3794 33.2388 11.304C34.9288 9.27036 37.1046 8.21702 39.6924 7.81029C42.0055 7.43485 44.2131 7.79986 46.3044 8.73847C47.4451 9.2495 48.438 10.0108 49.283 10.9807C50.6983 12.5972 51.4694 14.4744 51.7545 16.5394C51.9341 17.843 51.8918 19.1779 51.6806 20.5129C51.4377 22.0146 50.9096 23.3808 50.0646 24.6428C48.6598 26.7494 46.653 27.9905 44.2131 28.6371C43.273 28.8874 42.3224 28.7727 41.5091 28.8039V28.7935ZM41.2345 10.7096C40.8648 10.7617 40.2839 10.793 39.7347 10.9286C38.6362 11.1893 37.6433 11.6482 36.8089 12.4408C35.2774 13.8904 34.6648 15.7364 34.5169 17.7492C34.4113 19.1362 34.6542 20.5024 35.2034 21.7956C35.8477 23.3078 36.8512 24.4863 38.4038 25.1746C39.8825 25.8317 41.4352 26.0507 43.009 25.6648C44.2764 25.3624 45.4383 24.7888 46.3255 23.8189C47.8359 22.1502 48.269 20.1061 48.3007 17.9577C48.3007 17.5719 48.2162 17.1756 48.1528 16.7897C47.8993 15.2671 47.3606 13.8487 46.241 12.7224C44.9313 11.4083 43.2941 10.8139 41.2451 10.7304L41.2345 10.7096Z" fill="white"/>
<path d="M143.722 14.1929C143.553 14.245 143.479 14.2972 143.394 14.2972C142.359 14.2972 141.314 14.2972 140.236 14.2972C140.194 14.099 140.152 13.9113 140.099 13.734C139.634 12.0967 138.43 11.1893 136.856 10.7722C135.388 10.3863 133.899 10.4697 132.473 11.0642C131.607 11.4292 130.92 11.9715 130.582 12.8997C130.234 13.8696 130.445 15.1836 131.934 15.7781C132.357 15.945 132.811 16.0597 133.255 16.1223C134.269 16.2683 135.304 16.3413 136.318 16.5081C138.06 16.7897 139.835 17.0192 141.419 17.8743C143.141 18.8025 144.049 20.2522 144.102 22.1815C144.113 22.6613 144.102 23.1514 144.028 23.6207C143.732 25.279 142.761 26.4887 141.356 27.3856C139.962 28.2721 138.43 28.7727 136.751 28.7727C135.969 28.7727 135.187 28.7935 134.416 28.7727C131.86 28.6997 129.642 27.8654 127.952 25.9151C126.938 24.7471 126.516 23.3809 126.6 21.7852C127.181 21.7122 127.752 21.7539 128.322 21.7539C128.871 21.7539 129.42 21.7539 129.991 21.7539C130.065 22.0877 130.107 22.3797 130.192 22.6717C130.572 24.0379 131.544 24.9035 132.822 25.3832C134.945 26.1863 137.089 26.155 139.159 25.1434C140.553 24.4655 140.976 22.995 140.384 21.6079C140.173 21.1282 139.772 20.8049 139.317 20.5442C138.684 20.1687 137.965 20.0749 137.268 19.9497C136.001 19.7307 134.712 19.6264 133.445 19.4074C132.431 19.2301 131.417 19.0215 130.445 18.6982C129.325 18.3228 128.354 17.6762 127.667 16.6646C127.245 16.0284 127.044 15.3297 126.97 14.61C126.801 12.9727 127.224 11.5126 128.343 10.2194C129.484 8.90537 130.941 8.1649 132.589 7.8416C135.029 7.38273 137.458 7.45573 139.75 8.52992C141.968 9.57282 143.342 11.2728 143.606 13.734C143.616 13.8696 143.658 13.9947 143.701 14.1825L143.722 14.1929Z" fill="white"/>
<path d="M164.412 7.96662C164.021 8.38378 163.746 8.70708 163.44 8.99909C161.961 10.4696 160.472 11.9401 159.004 13.421C157.715 14.7142 156.437 16.0283 155.17 17.3319C154.515 17.9994 154.526 18.573 155.17 19.2508C155.328 19.4177 155.497 19.5741 155.656 19.7306C158.106 22.2023 160.567 24.6739 163.018 27.1561C163.451 27.5941 163.842 28.0738 164.327 28.6161C164.137 28.6683 164.021 28.7308 163.905 28.7308C162.637 28.7308 161.37 28.7308 160.092 28.7413C159.743 28.7413 159.49 28.6474 159.258 28.4075C158.032 27.1352 156.797 25.8629 155.55 24.6114C154.568 23.6102 153.564 22.6298 152.572 21.6495C151.653 20.7526 151.156 19.6367 151.125 18.4061C151.093 17.1337 151.558 15.9761 152.477 15.0479C153.079 14.4431 153.702 13.8382 154.304 13.2333C155.888 11.6272 157.483 10.0316 159.046 8.40464C159.437 7.99791 159.828 7.82061 160.398 7.8519C161.518 7.89362 162.648 7.8519 163.778 7.87276C163.968 7.87276 164.148 7.9249 164.433 7.97705L164.412 7.96662Z" fill="white"/>
<path d="M170.401 8.79055C170.242 9.15556 170.137 9.41629 170.02 9.67701C169.281 9.89602 169.535 9.03041 169.144 8.90527C168.933 9.1347 169.355 9.61444 168.764 9.72916C168.605 9.12428 168.7 8.54025 168.7 7.92494C169.609 7.71636 169.418 8.61325 169.82 8.90527C169.968 8.63411 170.105 8.32124 170.306 8.05008C170.38 7.94579 170.601 7.89365 170.749 7.92494C170.834 7.93537 170.939 8.13352 170.95 8.24824C170.971 8.69668 170.95 9.15556 170.95 9.60401C170.707 9.76045 170.506 9.83345 170.432 9.47886C170.39 9.29114 170.411 9.10342 170.39 8.79055H170.401Z" fill="white"/>
<path d="M168.025 9.63526C167.687 9.73955 167.507 9.70826 167.497 9.42668C167.486 9.11381 167.497 8.81137 167.497 8.54021C167.391 8.25863 166.726 8.46721 167.064 7.87275C167.55 7.9249 168.12 7.63289 168.659 8.20648C168.405 8.31077 168.236 8.37335 168.025 8.46721V9.63526Z" fill="white"/>
</svg>
