<svg width="203" height="67" viewBox="0 0 203 67" fill="none" xmlns="http://www.w3.org/2000/svg">
<path d="M55.4772 19.5545C56.546 18.9091 57.657 18.2215 58.587 17.3831C59.6075 16.4602 60.3502 15.0669 60.2596 13.6615C60.1449 11.9726 59.1848 10.5492 57.6208 9.89171C56.1474 9.27044 54.5955 9.566 53.3093 10.4587C52.3251 11.1463 51.365 11.8822 50.4773 12.6904C50.121 13.0161 49.7768 13.3539 49.4387 13.6977C49.2515 13.5409 49.0522 13.3901 48.859 13.2393C49.2515 12.606 49.6259 11.9545 49.958 11.285C50.5196 10.1752 51.1415 8.98695 51.4676 7.78665C51.9084 6.18221 51.6729 4.43302 50.5196 3.17843C49.4689 2.03844 47.8747 1.59209 46.3772 1.9359C44.7468 2.30383 43.7746 3.56446 43.1889 5.03016C43.4787 4.31239 43.1345 5.15683 43.1164 5.19302C43.0319 5.38603 42.9534 5.58508 42.8749 5.77809C42.7903 5.98317 42.7118 6.18825 42.6394 6.39936C42.4522 6.90602 42.2892 7.42474 42.1442 7.9495C42.0355 8.33553 41.945 8.73362 41.8544 9.12568C41.5585 9.00505 41.2626 8.89045 40.9667 8.77584C40.9969 8.39585 41.015 8.01585 41.0271 7.62982C41.0694 6.36317 41.0935 5.06635 40.8641 3.81779C40.6165 2.45462 39.7832 1.16987 38.5513 0.506386C36.9572 -0.344084 35.0672 -0.0967843 33.6964 1.04924C31.9996 2.47272 32.06 4.81905 32.3498 6.92411C31.7158 6.88189 31.0757 6.85776 30.4296 6.85776C13.9507 6.8638 0.599609 20.1999 0.599609 36.6544C0.599609 53.1088 13.9506 66.4449 30.4236 66.4449C46.8965 66.4449 60.2475 53.1088 60.2475 36.6544C60.2475 30.4055 58.3152 24.6091 55.0243 19.8199C55.1752 19.7294 55.3262 19.645 55.4772 19.5545ZM49.0402 17.7872C50.2177 16.1104 52.307 14.0295 54.2815 12.6723C54.6378 12.425 54.988 12.1476 55.4047 12.0269C56.0387 11.846 56.7634 12.0209 57.2404 12.4733C57.7174 12.9257 57.9348 13.6374 57.7899 14.2768C57.6027 15.0971 56.9324 15.7244 56.238 16.2069C54.1849 17.6364 52.2043 18.7885 50.1392 19.4881C50.1392 19.4881 48.7624 19.8923 48.6114 19.2047C48.545 18.6799 48.696 18.2697 49.0341 17.7932L49.0402 17.7872ZM45.3084 6.00126C45.4835 5.60317 45.6284 5.18095 45.9183 4.86127C46.3591 4.3727 47.0656 4.13747 47.7117 4.26413C48.3578 4.39683 48.9194 4.8854 49.1368 5.50666C49.4145 6.30285 49.179 7.18951 48.8469 7.9676C47.8627 10.2657 46.7938 12.2923 45.4171 13.9752C45.4171 13.9752 44.463 15.0488 43.9678 14.5421C43.6357 14.126 43.5452 13.7037 43.5753 13.1187C43.684 11.0739 44.3483 8.20283 45.3023 6.00126H45.3084ZM47.2347 22.3472C46.5523 22.7995 45.6284 22.6126 45.1755 21.9249C44.7227 21.2373 44.9098 20.3205 45.5982 19.8681C46.2806 19.4158 47.2045 19.6027 47.6573 20.2904C48.1102 20.9719 47.923 21.8948 47.2347 22.3472ZM41.6491 16.6713C41.9933 15.9234 42.8749 15.5977 43.6176 15.9355C44.3664 16.2793 44.6925 17.1599 44.3543 17.9018C44.0101 18.6497 43.1285 18.9754 42.3858 18.6377C41.637 18.2939 41.3109 17.4132 41.6491 16.6713ZM34.6324 3.73938C34.8256 3.11208 35.3691 2.59939 36.0092 2.44859C36.6492 2.2978 37.3678 2.50288 37.8207 2.97938C38.4064 3.58858 38.5634 4.49334 38.5876 5.33778C38.654 7.8349 38.5393 10.1209 37.9958 12.226C37.9958 12.226 37.5792 13.6012 36.921 13.3479C36.4439 13.1126 36.1843 12.7628 35.9669 12.2199C35.2121 10.32 34.6082 7.43078 34.5539 5.03619C34.5418 4.60191 34.4995 4.15556 34.6324 3.74541V3.73938ZM38.811 16.0863C38.811 16.9066 38.1528 17.5761 37.3316 17.5761C36.5103 17.5761 35.8401 16.9186 35.8401 16.0983C35.8401 15.278 36.4983 14.6085 37.3195 14.6085C38.1407 14.6085 38.811 15.266 38.811 16.0863ZM51.6065 39.1515C51.4495 41.9321 50.6766 44.6584 49.324 47.1133C48.9435 47.8009 48.5329 48.4584 48.0197 49.0616C47.5547 49.6104 47.0173 50.0689 46.4376 50.4971C44.9461 51.6069 43.1587 52.2222 41.323 52.4936C40.5138 53.6758 39.6322 54.8037 38.6661 55.8593C38.3038 56.2574 37.9294 56.6494 37.4765 56.939C36.9632 57.2707 36.3654 57.4577 35.7676 57.5904C34.6867 57.8316 33.5696 57.9161 32.4646 57.8437C32.2412 57.8316 32.0238 57.8075 31.8064 57.7774C29.0408 57.4336 26.4986 56.1307 24.2462 54.5444C23.733 54.1825 23.1653 53.5371 22.5977 53.2898C22.0784 53.0666 21.1666 53.2295 20.5809 53.1752C19.1739 53.0364 17.773 52.6685 16.5472 51.9507C15.3697 51.2631 13.4495 49.9904 12.9422 46.9203C12.7067 45.5029 12.5799 44.4292 12.7007 42.8368C12.7671 41.9683 13.1415 39.2178 14.168 35.6109C14.5001 34.4407 14.9893 33.2464 15.3576 32.0884C15.5146 31.5938 15.8045 31.0328 15.726 30.5201C15.6475 29.9954 15.3818 29.4465 15.2429 28.9277C14.6753 26.7382 14.4458 24.4643 14.5786 22.2084C14.6149 21.545 14.8625 20.5437 15.2127 19.9827C15.7984 19.0478 16.8853 18.897 17.9662 19.2167C19.023 19.5304 19.9891 20.0853 20.8164 20.8151C22.0543 21.9189 23.117 23.2218 23.9383 24.6573C24.2945 24.5065 26.5892 23.4811 26.7945 23.3786C27.4164 23.0649 27.0602 22.0878 26.8367 21.0684C26.3778 18.9875 26.245 17.1297 26.4986 14.9885C26.5892 14.1983 26.8065 13.2272 27.5613 12.9799C28.5939 12.6422 30.7919 14.9282 31.583 16.0923C32.5853 17.5701 33.5696 19.1986 34.0768 20.9177C36.1058 20.3326 38.5997 21.1891 40.2844 22.4618C40.5742 22.6849 40.8641 22.9141 41.1479 23.1494C43.1527 24.8443 44.8434 26.9071 46.1175 29.1931C46.6368 30.1281 47.0897 31.1052 47.4702 32.1065C47.6453 32.1306 47.8144 32.1547 47.9834 32.1909C49.4628 32.5045 50.5377 33.6566 51.0993 34.9836C51.6488 36.2864 51.679 37.7702 51.6005 39.1575L51.6065 39.1515Z" fill="white"/>
<path d="M19.2223 21.925C19.023 21.7923 18.8117 21.6596 18.5762 21.6053C18.3407 21.545 18.075 21.5691 17.8818 21.7139C17.61 21.9189 17.5496 22.2929 17.5194 22.6246C17.3383 24.591 17.4772 26.5935 18.0689 28.4754C18.1837 28.8433 18.5943 29.9773 19.651 29.7421C21.0278 29.4405 22.0906 28.5478 22.0906 28.5478C22.6159 28.1617 23.0326 27.5586 23.0326 26.9072C23.0326 26.4548 22.8393 26.0265 22.6219 25.6284C21.8128 24.1446 20.6353 22.8599 19.2283 21.925H19.2223Z" fill="white"/>
<path d="M47.8017 34.4468C47.8017 34.4468 47.7836 34.4408 47.7715 34.4408C47.7956 34.4529 47.8258 34.4649 47.8621 34.477C47.8621 34.477 47.8621 34.477 47.856 34.471C47.8379 34.4649 47.8198 34.4529 47.8017 34.4468Z" fill="white"/>
<path d="M30.2173 15.9838C29.6316 15.272 29.0881 15.2358 28.8647 15.3927C28.5809 15.5917 28.4964 16.026 28.4722 16.3698C28.3937 17.4133 28.5145 18.4206 28.6413 19.446C28.7681 20.4774 29.2632 21.9551 29.5108 22.2145C29.5108 22.2145 29.9758 23.059 31.5941 22.5824C32.1013 22.4497 32.5723 22.0698 32.6569 21.5571C32.7112 21.2012 32.6327 20.8393 32.524 20.4774C32.0409 18.8609 31.2922 17.2926 30.2234 15.9838H30.2173Z" fill="white"/>
<path d="M36.9704 29.1509C37.5682 29.5188 39.1262 29.6274 40.1889 29.356C40.5694 29.2595 40.9619 29.1147 41.2094 28.8071C41.457 28.4995 41.5053 28.0592 41.3966 27.6852C41.2879 27.3052 41.0283 26.9795 40.7264 26.7322C40.0078 26.1411 38.9933 25.9239 38.0996 26.1773C37.8943 26.2376 37.7011 26.316 37.5199 26.4246C36.8799 26.8166 36.5357 27.3535 36.427 28.0954C36.427 28.0954 36.3485 28.783 36.9765 29.1509H36.9704Z" fill="white"/>
<path d="M47.7799 34.6036C47.7799 34.6036 47.7436 34.5855 47.7255 34.5794C47.7134 34.5794 47.7074 34.5734 47.6953 34.5674C47.7195 34.5794 47.7497 34.5915 47.7859 34.6036C47.7859 34.6036 47.7859 34.6036 47.7799 34.5975V34.6036Z" fill="white"/>
<path d="M25.4976 35.1042C25.8719 35.1102 26.2403 35.0378 26.5845 34.8931C27.4782 34.5251 28.1907 33.735 28.6376 32.9931C29.3078 31.7506 29.4226 30.8941 29.4226 30.8941C29.495 30.0195 29.0965 29.4163 28.3598 29.1207C27.925 28.9458 27.2366 29.1207 26.8079 29.3077C26.3792 29.5007 26.0169 29.8084 25.6908 30.1461C25.0749 30.7976 24.5978 31.5817 24.3019 32.4261C24.2355 32.6131 23.5592 35.068 25.5036 35.1042H25.4976Z" fill="white"/>
<path d="M49.2711 38.7112C49.2772 38.3794 49.2711 38.0416 49.259 37.7099C49.253 37.541 49.2409 37.3661 49.2228 37.1972C49.2168 37.1369 49.2107 37.0705 49.2047 37.0102C49.2047 37.0042 49.2047 36.9982 49.2047 36.9861C49.1383 36.6543 49.0719 36.3226 48.9511 35.9969C48.933 35.9486 48.9149 35.8883 48.8967 35.834C48.8786 35.8099 48.8665 35.7858 48.8545 35.7677C48.8001 35.6591 48.7458 35.5566 48.6794 35.4601C48.631 35.3817 48.5767 35.3032 48.5224 35.2248C48.4439 35.1404 48.3714 35.0499 48.2869 34.9715C48.2385 34.9232 48.1842 34.875 48.1299 34.8267C48.0876 34.8147 47.8702 34.6578 47.84 34.6398C47.7977 34.6156 47.7555 34.5975 47.7132 34.5734C47.7011 34.5674 47.689 34.5613 47.677 34.5553C47.6407 34.5432 47.6105 34.5372 47.5985 34.5372C47.4475 34.489 47.2965 34.4648 47.1395 34.4286C47.1395 34.4286 47.1335 34.4286 47.1275 34.4286C47.1214 34.4286 47.1094 34.4286 47.1033 34.4286C47.0309 34.4286 46.9584 34.4166 46.8859 34.4106C46.7289 34.3985 46.5659 34.3925 46.4089 34.3864C45.8292 34.3683 45.2435 34.3864 44.6638 34.4407C42.9307 34.6217 41.2279 35.1344 39.6217 35.8159C37.4297 36.7448 35.3887 37.9873 33.3417 39.2118C32.8344 39.5194 31.8985 40.0743 31.3127 40.1949C30.9504 40.2673 30.5096 40.0984 30.0145 39.7667C27.7923 38.3673 26.1982 37.722 26.1982 37.722C25.1475 37.3239 24.0122 37.0404 22.9012 37.1972C21.7901 37.354 20.6971 38.0356 20.3107 39.0912C20.0027 39.9235 20.1718 40.8524 20.3892 41.7089C20.7877 43.2651 21.6452 48.2171 27.7259 49.906C32.0615 51.1123 36.6266 50.6358 41.1132 50.2799C41.4875 50.2498 41.8438 50.2015 42.1759 50.1412C42.4295 50.093 42.6409 50.0387 42.7677 50.0025C42.8885 49.9603 43.0092 49.918 43.13 49.8758C43.1964 49.8517 43.2629 49.8276 43.3293 49.7974C43.764 49.6044 44.1867 49.3933 44.5853 49.14C44.7604 49.0314 44.9355 48.9168 45.0985 48.7962C45.0865 48.8082 45.0744 48.8142 45.0623 48.8263C45.0985 48.7962 45.1348 48.772 45.171 48.7419C45.2435 48.6876 45.3099 48.6333 45.3763 48.573C45.6058 48.38 45.8292 48.1689 46.0405 47.9517C46.1311 47.8552 46.2217 47.7587 46.3062 47.6562C46.3304 47.632 46.3485 47.6019 46.3727 47.5777C46.8618 46.9203 47.2664 46.1965 47.6287 45.4667C47.7011 45.3219 47.7736 45.1711 47.84 45.0263C47.8762 44.954 47.9064 44.8755 47.9427 44.8032C47.9427 44.7911 47.9487 44.7851 47.9547 44.779C47.9547 44.779 47.9547 44.779 47.9547 44.773C48.0695 44.4956 48.1782 44.2181 48.2808 43.9346C48.4922 43.3556 48.6673 42.7705 48.8122 42.1794C48.8847 41.8778 48.9571 41.5702 49.0115 41.2626C49.0417 41.0997 49.0719 40.9429 49.096 40.78C49.1081 40.7016 49.1202 40.6172 49.1322 40.5388C49.1564 40.3819 49.1443 40.4784 49.1322 40.5448C49.247 39.9597 49.253 39.3143 49.2711 38.7232V38.7112ZM44.9899 41.3229C44.9899 41.3229 44.5974 41.733 43.764 41.5883C43.0455 41.4314 42.339 41.2143 41.6627 40.9308C41.1494 40.7197 40.6422 40.4603 40.2497 40.0683C39.8632 39.6702 39.6035 39.1153 39.682 38.5664C39.7847 37.8727 40.5274 37.0947 41.1313 36.7388C42.3571 36.015 43.5587 35.8099 45.0442 35.834C45.4065 35.8401 45.8111 35.9064 46.107 36.1115C46.6384 36.4734 46.898 37.0102 46.8316 37.5953C46.6021 39.634 45.2495 41.0997 44.9899 41.3229Z" fill="white"/>
<path d="M42.6165 32.4623C42.6165 33.168 41.5658 33.7411 40.2735 33.7411C38.9753 33.7411 37.9246 33.1801 37.9185 32.4744C37.9185 32.4382 37.9185 32.402 37.9306 32.3598C38.148 32.4925 38.4378 32.5709 38.7639 32.5709C39.4221 32.5709 39.9535 32.2331 39.9535 31.823C39.9535 31.5998 39.7905 31.3947 39.5368 31.262C39.7663 31.2198 40.0139 31.1957 40.2675 31.1957C41.5658 31.1957 42.6165 31.7566 42.6225 32.4623H42.6165ZM34.1022 35.8883C34.1022 36.594 33.0515 37.1671 31.7593 37.1671C30.461 37.1671 29.4103 36.6061 29.4043 35.9004C29.4043 35.8642 29.4043 35.828 29.4164 35.7858C29.6338 35.9185 29.9236 35.9969 30.2497 35.9969C30.9079 35.9969 31.4393 35.6591 31.4393 35.249C31.4393 35.0258 31.2762 34.8207 31.0226 34.688C31.2521 34.6458 31.4996 34.6217 31.7533 34.6217C33.0515 34.6217 34.1022 35.1826 34.1083 35.8883H34.1022Z" fill="white"/>
<path d="M95.7586 31.4554C95.7586 32.2938 95.6258 33.1442 95.3661 33.9947C95.1065 34.8512 94.6717 35.7077 94.0618 36.5763C95.2454 37.5594 96.1149 38.6813 96.6704 39.942C97.2199 41.2026 97.4977 42.4692 97.4977 43.7419C97.4977 45.1895 97.1656 46.5768 96.5014 47.9098V47.8676C95.7767 49.3152 94.7442 50.5095 93.3976 51.4504C92.051 52.3914 90.3844 52.8619 88.3857 52.8619H74.3281V22.6008H84.3278L87.5886 22.6431C88.8084 22.7275 89.9134 23.0351 90.9158 23.5538C91.9182 24.0726 92.7696 24.7421 93.4821 25.5503C94.1947 26.3586 94.7502 27.2754 95.1548 28.2887C95.5594 29.302 95.7647 30.3576 95.7647 31.4554H95.7586ZM80.6323 34.5798H86.9364C87.6309 34.5798 88.2226 34.2842 88.7178 33.6871C89.2129 33.096 89.4545 32.3601 89.4545 31.4916C89.4545 30.623 89.2069 29.9173 88.7178 29.2779C88.2226 28.6446 87.6309 28.3249 86.9364 28.3249H80.6323V34.5798ZM88.4098 47.1679C89.1948 47.1679 89.853 46.8302 90.3904 46.1486C90.9279 45.467 91.1936 44.6527 91.1936 43.6937C91.1936 42.7346 90.9279 41.9626 90.3904 41.281C89.853 40.5994 89.1948 40.2616 88.4098 40.2616H80.6323V47.1619H88.4098V47.1679Z" fill="#FCFCFC"/>
<path d="M118.881 22.5945C120.94 22.5945 122.866 22.9926 124.66 23.7888C126.453 24.5849 128.023 25.6646 129.352 27.0217C130.686 28.3849 131.743 29.9833 132.522 31.8169C133.307 33.6566 133.693 35.6169 133.693 37.6979C133.693 39.7788 133.301 41.7512 132.522 43.6029C131.737 45.4546 130.68 47.0651 129.352 48.4222C128.017 49.7854 126.453 50.859 124.66 51.6552C122.86 52.4514 120.934 52.8495 118.881 52.8495C116.828 52.8495 114.938 52.4514 113.144 51.6552C111.345 50.859 109.775 49.7793 108.428 48.4222C107.082 47.0651 106.013 45.4546 105.234 43.6029C104.449 41.7512 104.062 39.7848 104.062 37.6979C104.062 35.6109 104.455 33.6506 105.234 31.8169C106.019 29.9773 107.082 28.3789 108.428 27.0217C109.775 25.6646 111.345 24.5849 113.144 23.7888C114.938 22.9926 116.852 22.5945 118.881 22.5945ZM118.857 47.1676C120.046 47.1676 121.163 46.9203 122.214 46.4318C123.259 45.9372 124.165 45.2616 124.937 44.393C125.71 43.5245 126.308 42.5172 126.749 41.3772C127.184 40.2372 127.401 39.0128 127.401 37.7099C127.401 36.4071 127.184 35.1826 126.749 34.0426C126.314 32.9027 125.71 31.9014 124.937 31.0449C124.165 30.1944 123.259 29.5189 122.214 29.0243C121.169 28.5297 120.052 28.2884 118.857 28.2884C117.661 28.2884 116.592 28.5357 115.542 29.0243C114.497 29.5189 113.591 30.1884 112.818 31.0449C112.045 31.9014 111.448 32.8966 111.007 34.0426C110.572 35.1887 110.355 36.4071 110.355 37.7099C110.355 39.0128 110.572 40.2372 111.007 41.3772C111.442 42.5232 112.045 43.5245 112.818 44.393C113.591 45.2616 114.497 45.9432 115.542 46.4318C116.586 46.9264 117.691 47.1676 118.857 47.1676Z" fill="#FCFCFC"/>
<path d="M161.561 42.0467V22.5945H167.865V52.8555H161.851L147.957 33.4938V52.8555H141.652V22.5945H147.606L161.561 42.0467Z" fill="#FCFCFC"/>
<path d="M202.591 22.5945L189.771 37.7884L202.591 52.8556H194.681L185.816 42.4328L184.162 44.4293V52.8495H177.857V22.5885H184.162V35.0922L194.681 22.5885H202.591V22.5945Z" fill="#FCFCFC"/>
</svg>
