<svg width="596" height="70" viewBox="0 0 596 70" fill="none" xmlns="http://www.w3.org/2000/svg">
    <path
        d="M506.818 69.8625C482.053 69.8625 457.255 69.5945 432.49 69.9966C421.876 70.1641 417.361 64.1663 417.665 55.2199C418.136 41.0798 417.766 26.9063 417.799 12.7662C417.799 4.48997 422.247 0 430.67 0C481.447 0 532.256 0 583.032 0C589.737 0 593.915 2.88162 595.432 8.41031C595.735 9.54956 595.802 10.7893 595.802 11.9956C595.802 27.3754 595.836 42.7217 595.802 58.1015C595.802 65.004 591.355 69.494 584.414 69.829C583.032 69.896 581.685 69.829 580.303 69.829C555.808 69.829 531.279 69.829 506.784 69.829L506.818 69.8625ZM584.01 11.7945C582.561 11.627 581.786 11.4595 580.977 11.4595C565.95 11.4595 550.889 11.3254 535.862 11.56C532.694 11.5935 529.359 12.5987 526.427 13.872C516.623 18.2279 510.996 28.5481 513.253 39.5385C515.511 50.5624 524.945 58.2691 536.266 58.3696C551.024 58.5371 565.815 58.4031 580.573 58.3696C581.617 58.3696 582.628 58.1015 583.976 57.9005C583.976 52.9079 583.976 48.2169 583.976 43.5259C583.976 42.7552 583.74 41.9845 583.538 40.8453C581.853 40.7783 580.236 40.6107 578.652 40.6107C565.512 40.6107 552.405 40.6107 539.265 40.6107C538.052 40.6107 536.805 40.6778 535.592 40.5102C532.728 40.1081 530.706 37.7626 530.706 34.9145C530.706 32.0664 532.694 29.7544 535.626 29.3523C536.973 29.1848 538.355 29.2183 539.736 29.2183C552.742 29.2183 565.714 29.2183 578.72 29.2183C580.337 29.2183 581.921 29.0843 583.639 28.9837C583.807 27.7105 584.01 26.8058 584.01 25.8676C584.043 21.3106 584.01 16.7536 584.01 11.7945ZM429.828 11.56C430.974 13.3694 431.715 14.6427 432.557 15.8154C441.082 27.3419 449.876 38.7008 458.097 50.4619C465.004 60.313 481.413 62.4239 490.173 50.2943C498.596 38.6673 507.222 27.2079 515.713 15.6479C516.555 14.5086 517.229 13.2689 518.375 11.426C511.232 11.426 504.931 11.5265 498.664 11.3589C496.069 11.2919 494.351 12.0626 492.835 14.2071C489.297 19.3002 485.49 24.2592 481.783 29.2853C479.391 32.5355 476.965 35.7187 474.135 39.505C466.992 29.9219 460.152 20.741 453.346 11.5935H429.761L429.828 11.56Z"
        fill="white" />
    <path
        d="M163.582 40.7447V63.5296C162.503 63.6637 161.493 63.8647 160.448 63.8647C149.363 63.8647 138.278 63.9652 127.193 63.8647C112.367 63.7307 99.8334 51.2325 98.991 36.6233C98.1487 22.1817 108.56 8.87936 122.913 6.2993C124.261 6.06475 125.609 5.89722 126.957 5.89722C150.07 5.89722 173.184 5.89722 196.298 5.89722C197.241 5.89722 198.185 6.03125 199.398 6.13177V63.6637H170.287C169.916 52.2042 170.354 40.9458 170.017 29.5198C168.804 29.3523 167.894 29.1177 166.985 29.1177C156.438 29.1177 145.926 29.1177 135.38 29.1177C134.167 29.1177 132.887 29.2182 131.809 29.6873C129.315 30.7261 127.967 33.5072 128.439 35.9867C128.945 38.6673 131.236 40.6777 134.268 40.7112C140.569 40.8117 146.87 40.7447 153.137 40.7447C156.405 40.7447 159.707 40.7447 163.514 40.7447H163.582Z"
        fill="white" />
    <path
        d="M298.49 40.7448C299.131 48.485 298.794 55.8565 298.726 63.4962C297.412 63.6637 296.368 63.8983 295.357 63.8983C274.13 63.8983 252.937 64.0323 231.71 63.8648C217.592 63.7642 204.924 51.132 204.216 37.2265C203.609 25.1974 208.529 16.117 218.805 9.78412C222.68 7.40511 226.993 5.9978 231.609 5.9978C252.97 5.93079 274.298 5.9978 295.66 5.9978C296.469 5.9978 297.244 6.09832 298.625 6.23235C298.996 13.7715 298.928 21.2101 298.625 29.1513C296.738 29.1513 295.256 29.1513 293.807 29.1513C276.826 29.1513 259.878 29.1513 242.896 29.1513C241.649 29.1513 240.436 29.0843 239.19 29.1848C235.922 29.4193 233.563 31.8319 233.529 34.948C233.529 38.0307 235.854 40.5437 239.089 40.8118C240.167 40.9123 241.279 40.8453 242.357 40.8453C259.473 40.8453 276.59 40.8453 293.672 40.8453C295.155 40.8453 296.604 40.8453 298.457 40.8453L298.49 40.7448Z"
        fill="white" />
    <path
        d="M94.4429 64.0658C84.7729 64.1998 75.2713 64.1328 65.197 64.0993C65.0622 58.202 64.9611 52.7739 64.8263 47.0441H29.2797C28.7743 52.5058 29.2797 58.001 28.909 63.9653C19.2053 64.2669 9.73743 64.0993 0 64.0993V6.19885H29.0101V22.6844C32.2784 23.7901 59.9745 24.0247 64.8937 22.986C64.9611 17.5578 65.0622 11.9621 65.1296 6.19885H94.4429V64.0658Z"
        fill="white" />
    <path
        d="M376.188 34.9145C387.914 44.5646 399.268 53.9131 411.263 63.7642C409.174 63.8647 407.961 63.9653 406.782 63.9653C397.752 63.9653 388.722 63.9317 379.692 63.9988C377.267 63.9988 375.279 63.5297 373.291 61.9883C367.26 57.3308 361.094 52.9079 354.894 48.4514C353.85 47.6808 352.535 46.8431 351.289 46.7761C345.965 46.6085 340.642 46.709 334.88 46.709C334.375 52.4388 334.88 57.934 334.543 63.6637H305.836C304.859 60.7151 304.59 11.3254 305.6 6.06479C315.001 5.59569 324.502 5.93076 334.577 5.86374V22.9859C337.508 23.0529 339.934 22.8854 342.293 23.2205C349.57 24.2257 355.501 21.9807 360.925 17.1557C364.968 13.5704 369.584 10.5883 373.998 7.43858C375.043 6.70142 376.424 5.96426 377.671 5.96426C388.352 5.86374 399.033 5.93076 409.68 5.96426C409.916 5.96426 410.118 6.16531 410.758 6.50038C404.895 11.3254 399.201 16.0499 393.473 20.7409C387.846 25.3649 382.219 30.0224 376.222 34.948L376.188 34.9145Z"
        fill="white" />
</svg>