<svg width="180" height="61" viewBox="0 0 180 61" fill="none" xmlns="http://www.w3.org/2000/svg">
<path d="M30.5028 0C13.6791 0 0 13.6778 0 30.5C0 47.3222 13.6791 61 30.5028 61C47.3265 61 61.0056 47.3222 61.0056 30.5C61.0056 13.6778 47.3161 0 30.5028 0ZM59.4648 30.5C59.4648 46.4732 46.4775 59.4593 30.5028 59.4593C14.5282 59.4593 1.54086 46.4627 1.54086 30.5C1.54086 14.5373 14.5282 1.54072 30.5028 1.54072C46.4775 1.54072 59.4648 14.5268 59.4648 30.5Z" fill="white"/>
<path d="M94.4551 48.4226V38.3817H97.9142C98.9729 38.3817 99.8219 38.6228 100.44 39.1049C101.069 39.587 101.384 40.2578 101.384 41.1173C101.384 41.6518 101.258 42.1025 101.006 42.4693C100.755 42.8362 100.409 43.1297 99.9791 43.3183C100.482 43.507 100.881 43.79 101.185 44.1778C101.489 44.5656 101.635 45.0582 101.635 45.6556C101.635 46.5779 101.31 47.2697 100.671 47.7309C100.021 48.192 99.172 48.4226 98.1028 48.4226H94.4656H94.4551ZM97.7884 39.5556H95.7758V42.7733H97.7884C98.4907 42.7733 99.0462 42.637 99.4445 42.3645C99.8429 42.092 100.042 41.6833 100.042 41.1278C100.042 40.6142 99.8533 40.2264 99.4655 39.9539C99.0777 39.6814 98.5221 39.5451 97.7884 39.5451V39.5556ZM97.9456 43.9367H95.7863V47.2592H97.9456C98.7213 47.2592 99.3188 47.1229 99.7066 46.84C100.105 46.557 100.304 46.1482 100.304 45.6137C100.304 45.1106 100.115 44.7123 99.7276 44.3979C99.3502 44.0939 98.7527 43.9367 97.9456 43.9367Z" fill="white"/>
<path d="M133.606 48.4122L133.459 46.7666C133.155 47.2907 132.683 47.7204 132.044 48.0558C131.404 48.3912 130.692 48.5694 129.926 48.5694C129.235 48.5694 128.574 48.4331 127.945 48.1711C127.327 47.9091 126.782 47.5422 126.32 47.0811C125.859 46.6199 125.503 46.0854 125.23 45.4565C124.968 44.8381 124.832 44.1673 124.832 43.4546C124.832 42.7419 124.968 42.0816 125.241 41.4527C125.513 40.8238 125.88 40.2788 126.341 39.8281C126.803 39.367 127.358 39.0106 127.987 38.7381C128.627 38.4656 129.297 38.3293 130.01 38.3293C130.723 38.3293 131.352 38.4446 131.897 38.6647C132.442 38.8848 132.893 39.1678 133.27 39.4927C133.647 39.8177 133.941 40.174 134.161 40.5513C134.381 40.9287 134.528 41.2641 134.612 41.5575H133.186C132.987 41.0125 132.61 40.5409 132.054 40.1635C131.509 39.7862 130.817 39.5976 130.01 39.5976C129.465 39.5976 128.962 39.6919 128.49 39.891C128.019 40.0902 127.61 40.3627 127.264 40.6981C126.918 41.0335 126.645 41.4527 126.457 41.9244C126.258 42.396 126.163 42.9096 126.163 43.4546C126.163 43.9996 126.258 44.5132 126.457 44.9848C126.656 45.4565 126.928 45.8653 127.264 46.2111C127.599 46.557 128.008 46.8295 128.48 47.0182C128.951 47.2173 129.455 47.3116 129.989 47.3116C130.44 47.3116 130.859 47.2488 131.268 47.1125C131.666 46.9763 132.023 46.7876 132.337 46.5465C132.641 46.3055 132.893 46.012 133.081 45.6661C133.27 45.3202 133.385 44.9534 133.406 44.5446V44.4713H130.199V43.2869H134.601V48.4017H133.585L133.606 48.4122Z" fill="white"/>
<path d="M136.361 48.4121V38.3922H137.682V47.1754H142.504V48.4121H136.361Z" fill="white"/>
<path d="M150.588 47.2278V48.4332H143.932V38.4342H150.514V39.6395H145.252V42.7629H150.284V43.9892H145.252V47.2278H150.588Z" fill="white"/>
<path d="M118.733 48.4646C118.03 48.4646 117.37 48.3388 116.752 48.0767C116.133 47.8147 115.599 47.4584 115.148 47.0077C114.697 46.557 114.33 46.0225 114.068 45.4041C113.806 44.7962 113.67 44.1359 113.67 43.4336C113.67 42.7314 113.806 42.092 114.068 41.4737C114.33 40.8658 114.697 40.3312 115.158 39.87C115.62 39.4194 116.154 39.0525 116.773 38.7905C117.391 38.5285 118.041 38.3922 118.743 38.3922C119.446 38.3922 120.095 38.5285 120.714 38.7905C121.332 39.0525 121.867 39.4194 122.318 39.8596C122.768 40.3103 123.135 40.8448 123.397 41.4632C123.659 42.0816 123.796 42.7314 123.796 43.4336C123.796 44.1359 123.659 44.7857 123.397 45.4041C123.135 46.0225 122.768 46.557 122.318 47.0077C121.867 47.4584 121.322 47.8147 120.714 48.0872C120.095 48.3493 119.446 48.4855 118.743 48.4855L118.733 48.4646ZM118.733 47.2173C119.257 47.2173 119.739 47.123 120.2 46.9238C120.651 46.7352 121.049 46.4627 121.385 46.1273C121.72 45.7919 121.993 45.3831 122.181 44.9219C122.37 44.4503 122.475 43.9577 122.475 43.4231C122.475 42.8886 122.381 42.396 122.181 41.9348C121.993 41.4737 121.72 41.0649 121.385 40.7295C121.049 40.3941 120.651 40.1216 120.2 39.9225C119.75 39.7233 119.257 39.629 118.733 39.629C118.209 39.629 117.716 39.7233 117.255 39.9225C116.794 40.1216 116.395 40.3836 116.06 40.7295C115.724 41.0649 115.452 41.4632 115.263 41.9348C115.075 42.396 114.97 42.8991 114.97 43.4231C114.97 43.9472 115.064 44.4503 115.263 44.9219C115.452 45.3936 115.724 45.7919 116.06 46.1273C116.395 46.4627 116.794 46.7352 117.255 46.9238C117.716 47.1125 118.209 47.2173 118.733 47.2173Z" fill="white"/>
<path d="M107.819 48.4646C107.116 48.4646 106.456 48.3388 105.838 48.0767C105.219 47.8147 104.685 47.4584 104.234 47.0077C103.783 46.557 103.416 46.0225 103.154 45.4041C102.892 44.7962 102.756 44.1359 102.756 43.4336C102.756 42.7314 102.892 42.092 103.154 41.4737C103.416 40.8658 103.783 40.3312 104.244 39.87C104.706 39.4194 105.24 39.0525 105.859 38.7905C106.477 38.5285 107.127 38.3922 107.829 38.3922C108.531 38.3922 109.181 38.5285 109.8 38.7905C110.418 39.0525 110.953 39.4194 111.404 39.8596C111.854 40.3103 112.221 40.8448 112.483 41.4632C112.745 42.0816 112.882 42.7314 112.882 43.4336C112.882 44.1359 112.745 44.7857 112.483 45.4041C112.221 46.0225 111.854 46.557 111.404 47.0077C110.953 47.4584 110.408 47.8147 109.8 48.0872C109.181 48.3493 108.531 48.4855 107.829 48.4855L107.819 48.4646ZM107.819 47.2173C108.343 47.2173 108.825 47.123 109.286 46.9238C109.737 46.7352 110.135 46.4627 110.471 46.1273C110.806 45.7919 111.079 45.3831 111.267 44.9219C111.456 44.4503 111.561 43.9577 111.561 43.4231C111.561 42.8886 111.466 42.396 111.267 41.9348C111.079 41.4737 110.806 41.0649 110.471 40.7295C110.135 40.3941 109.737 40.1216 109.286 39.9225C108.835 39.7233 108.343 39.629 107.819 39.629C107.295 39.629 106.802 39.7233 106.341 39.9225C105.88 40.1216 105.481 40.3836 105.146 40.7295C104.81 41.0649 104.538 41.4632 104.349 41.9348C104.16 42.396 104.056 42.8991 104.056 43.4231C104.056 43.9472 104.15 44.4503 104.349 44.9219C104.538 45.3936 104.81 45.7919 105.146 46.1273C105.481 46.4627 105.88 46.7352 106.341 46.9238C106.802 47.1125 107.295 47.2173 107.819 47.2173Z" fill="white"/>
<path d="M73.0195 38.4552H74.2669V42.4485C74.8224 41.7987 75.5772 41.4004 76.552 41.4004C78.575 41.4004 80.1054 43.004 80.1054 44.9535C80.1054 46.903 78.6065 48.538 76.552 48.538C75.5876 48.538 74.812 48.1188 74.2564 47.4689V48.4122H73.03V38.4552H73.0195ZM76.4891 47.3432C77.8413 47.3432 78.8161 46.2741 78.8161 44.9535C78.8161 43.6329 77.8518 42.5848 76.4891 42.5848C75.1264 42.5848 74.1516 43.6119 74.1516 44.964C74.1516 46.316 75.1369 47.3432 76.4891 47.3432Z" fill="white"/>
<path d="M82.7057 41.5261L84.8755 46.84L87.1291 41.5261H88.4184L84.2675 51.2526H83.0097L84.257 48.3388L81.3535 41.5366H82.7057V41.5261Z" fill="white"/>
<path d="M73.9524 25.532L73.0195 23.0375H75.4199C75.5143 23.4357 75.7029 23.9284 75.8916 24.2952C76.6883 25.7206 77.9251 26.4438 79.9063 26.4438C81.8874 26.4438 83.292 25.3957 83.292 23.6873C83.292 22.4086 82.6106 21.5387 80.3046 21.0461L78.292 20.6268C75.0426 19.9455 73.5751 18.4363 73.5751 16.0256C73.5751 13.2272 75.9335 11.0995 79.1515 11.0995C81.9503 11.0995 83.7532 12.504 84.7804 14.2753L85.598 16.5811H83.2186C83.1033 16.1619 82.9356 15.6902 82.7259 15.3024C82.0027 13.9294 80.7448 13.1747 79.1306 13.1747C77.0342 13.1747 75.7658 14.3381 75.7658 15.8369C75.7658 17.168 76.4681 18.0065 78.9419 18.4991L80.8601 18.8974C84.1305 19.5787 85.5037 21.2347 85.5037 23.5196C85.5037 26.5277 82.9775 28.5191 79.8538 28.5191C77.1704 28.5191 75.095 27.4186 73.9524 25.532Z" fill="white"/>
<path d="M89.0143 16.5916L92.683 25.5529L96.488 16.5916H98.6578L91.6558 33.005H89.5279L91.6244 28.0788L86.7188 16.5916H89.0038H89.0143Z" fill="white"/>
<path d="M100.639 16.5916H102.735V18.1533C103.416 17.1471 104.653 16.382 106.309 16.382C109.182 16.382 110.911 18.3 110.911 21.3081V28.2151H108.815V21.612C108.815 19.8407 107.829 18.3943 105.848 18.3943C103.867 18.3943 102.746 19.8198 102.746 21.7797V28.2256H100.649V16.6021L100.639 16.5916Z" fill="white"/>
<path d="M113.385 22.3877C113.385 19.0756 115.975 16.3925 119.381 16.3925C120.995 16.3925 122.274 17.0738 123.207 18.1428V11.4244H125.304V28.2256H123.228V26.4753C122.369 27.6911 121.1 28.4353 119.329 28.4353C115.901 28.4353 113.375 25.6997 113.375 22.3877H113.385ZM119.455 26.4229C121.74 26.4229 123.396 24.5992 123.396 22.3877C123.396 20.1762 121.687 18.3944 119.455 18.3944C117.222 18.3944 115.534 20.1238 115.534 22.3877C115.534 24.6516 117.17 26.4229 119.455 26.4229Z" fill="white"/>
<path d="M129.004 11.6025H131.195V13.8874H129.004V11.6025ZM129.046 16.5915H131.142V28.2151H129.046V16.5915Z" fill="white"/>
<path d="M133.816 22.3876C133.816 19.0756 136.384 16.3925 139.717 16.3925C142.778 16.3925 144.55 18.2371 145.252 20.2705H142.914C142.443 19.1699 141.352 18.4048 139.759 18.4048C137.537 18.4048 135.975 20.1761 135.975 22.3981C135.975 24.6201 137.558 26.4333 139.78 26.4333C141.489 26.4333 142.516 25.7102 142.956 24.5677H145.22L144.329 26.4858C143.281 27.6806 141.719 28.4457 139.749 28.4457C136.342 28.4457 133.795 25.7102 133.795 22.3981L133.816 22.3876Z" fill="white"/>
<path d="M155.198 26.7687C154.611 27.5653 153.469 28.4457 151.435 28.4457C148.773 28.4457 146.865 27.0727 146.865 24.8297C146.865 22.5868 148.731 21.2766 151.718 21.1613C153.186 21.088 154.15 21.046 155.146 21.0251V20.6268C155.146 19.2747 154.024 18.2895 152.326 18.2895C150.628 18.2895 149.664 19.128 149.318 20.2495H147.054L147.966 18.3314C148.972 17.2309 150.324 16.3715 152.358 16.3715C155.461 16.3715 157.232 18.1952 157.232 20.8574V28.2151H155.198V26.7687ZM151.76 26.6534C152.714 26.6534 153.605 26.4228 154.192 25.9093C154.842 25.3747 155.146 24.5782 155.146 23.3624V22.7754C154.098 22.7754 153.437 22.7964 152.022 22.8907C149.989 22.985 148.962 23.6349 148.962 24.8087C148.962 25.9826 150.125 26.6534 151.76 26.6534Z" fill="white"/>
<path d="M159.56 16.5916H161.08L161.551 13.4158L163.438 12.6926V16.5916H166.688V18.4363H163.438V24.3895C163.438 25.6997 164.182 26.3705 165.283 26.3705H166.478V28.2151C166.132 28.2361 165.587 28.2571 165.031 28.2571C162.956 28.2571 161.321 26.9784 161.321 24.5677V18.4258H159.172L159.57 16.5811L159.56 16.5916Z" fill="white"/>
<path d="M168.24 22.3876C168.24 19.0756 170.808 16.3925 174.194 16.3925C177.884 16.3925 180.095 19.1699 179.98 22.9536H170.337C170.525 24.987 172.223 26.5277 174.351 26.5277C176.175 26.5277 177.171 25.7626 177.643 24.5677H179.907L179.068 26.339C177.968 27.6177 176.458 28.4352 174.351 28.4352C170.756 28.4352 168.24 25.6787 168.24 22.3876ZM177.821 21.2452C177.496 19.5368 176.144 18.2791 174.184 18.2791C172.087 18.2791 170.892 19.6102 170.494 21.2452H177.821Z" fill="white"/>
</svg>
