<svg width="241" height="91" viewBox="0 0 241 91" fill="none" xmlns="http://www.w3.org/2000/svg">
<path d="M52.4222 90.0565C51.2601 89.5835 50.36 88.7516 49.5908 87.7892C48.0523 85.8645 47.3486 83.5972 47.0867 81.1995C46.8576 79.0301 46.6939 76.828 46.6775 74.6423C46.6121 66.1278 46.5957 57.6133 46.5957 49.0988C46.5957 44.6948 46.6775 40.2907 46.7103 35.8867C46.743 32.0372 46.7594 28.1714 46.7757 24.3219C46.7757 23.7021 46.7757 23.066 46.7757 22.3972C47.1522 22.4951 47.1685 22.7887 47.2667 22.9844C48.0523 24.7297 48.8052 26.4914 49.5908 28.253C50.8182 31.0096 52.0785 33.7499 53.306 36.4902C54.8935 40.0297 56.481 43.5693 58.0686 47.1088C59.8198 51.0399 61.571 54.9546 63.3059 58.8856C64.7461 62.1316 66.2191 65.3775 67.643 68.6398C69.3942 72.636 71.1127 76.6323 72.8475 80.6449C73.0766 81.1832 73.0766 81.2158 72.5856 81.5746C67.9539 85 62.864 87.4956 57.2666 88.9637C55.8919 89.3225 54.5007 89.5672 53.1096 89.8771C52.9132 89.926 52.7168 90.0076 52.5204 90.0565H52.3894H52.4222Z" fill="white"/>
<path d="M90.3265 38.4801C89.099 38.6106 87.9697 38.7411 86.8404 38.8553C82.5852 39.2794 78.6245 38.1865 74.7293 36.6369C71.4887 35.3647 68.8373 33.2768 66.4806 30.7812C64.0747 28.2366 62.1434 25.3332 60.4086 22.3156C59.2138 20.2278 58.1828 18.0584 57.3972 15.7748C57.3317 15.5954 57.2499 15.4159 57.1844 15.2365C56.7916 15.2039 56.4152 15.106 56.0388 15.3507C55.8751 15.4649 55.5805 15.4159 55.3514 15.4159C48.7066 15.4159 42.0454 15.4159 35.4007 15.4159H34.0095C34.0259 15.7748 34.0422 16.0521 34.0586 16.2967C35.1879 16.574 36.2844 16.7861 37.3646 17.096C40.2288 17.9279 42.4873 19.559 43.8457 22.2667C44.5495 23.6694 44.7623 25.1864 44.795 26.736C44.795 26.9806 44.7295 27.2416 44.6641 27.4863C43.5839 31.7435 41.5381 35.5115 38.7885 38.9368C37.5447 40.4864 36.1535 41.9218 34.6151 43.1778C30.7198 46.3585 26.35 48.6584 21.3582 49.6044C17.4466 50.3384 13.5351 50.2406 9.63984 49.425C6.35019 48.7399 3.33876 47.4187 0.50736 45.6245C0.0981988 45.3798 0 45.1025 0 44.6621C0.0327329 41.5303 0.392795 38.4475 1.08019 35.381C2.17674 30.4386 4.07525 25.8225 6.72661 21.5164C8.54329 18.564 10.6873 15.8563 13.1423 13.377C15.7445 10.7509 18.625 8.49994 21.8001 6.5752C26.8737 3.50868 32.3238 1.46976 38.1829 0.572643C44.5168 -0.406036 50.7851 -0.145055 57.0044 1.46976C61.6688 2.6768 66.0223 4.60153 70.0648 7.19503C73.8127 9.59279 77.1188 12.4962 80.0156 15.8563C83.4198 19.82 86.0385 24.2403 87.9206 29.1011C89.0008 31.9067 89.7864 34.7774 90.261 37.7461C90.2938 37.9255 90.3101 38.1213 90.3429 38.4475L90.3265 38.4801Z" fill="white"/>
<path d="M0.294383 49.7512C1.12907 49.9469 1.86556 50.1101 2.60205 50.2895C5.30252 50.9093 8.05209 51.3334 10.818 51.4313C13.3712 51.5291 15.9407 51.5944 18.4939 51.4965C22.1436 51.366 25.7115 50.6646 29.2139 49.637C31.9471 48.8378 34.5658 47.7775 37.0535 46.4237C37.7899 46.0159 38.4937 45.5266 39.2138 45.1025C39.9667 44.6458 40.1958 44.6131 40.8341 45.233C41.7834 46.1627 42.6508 47.1577 43.5509 48.1527C43.8292 48.4626 44.0583 48.8215 44.3202 49.1477C44.4675 49.3108 44.6311 49.4576 44.9094 49.7023C44.9094 50.3873 44.9094 51.2355 44.9094 52.0674C44.893 53.829 44.8439 55.607 44.8112 57.3686C44.7621 60.2067 44.713 63.0612 44.6475 65.8994C44.5984 67.9546 44.5166 70.0262 44.4184 72.0814C44.2711 75.2132 44.0583 78.3449 43.3218 81.4114C42.8472 83.3851 42.1762 85.2935 41.0305 86.9899C40.3922 87.936 39.623 88.7678 38.7065 89.4692C38.3137 89.7791 37.9209 89.9096 37.4299 89.7791C35.5314 89.3061 33.5838 88.931 31.718 88.3601C26.0879 86.6474 21.0307 83.8418 16.4808 80.1229C11.9309 76.3713 8.24848 71.902 5.43345 66.7313C2.88028 62.0499 1.26 57.075 0.474414 51.8227C0.408949 51.3497 0.343483 50.8604 0.294383 50.3873C0.278017 50.1916 0.294383 49.9796 0.294383 49.7349V49.7512Z" fill="white"/>
<path d="M154.024 25.2843C154.221 25.2843 154.417 25.2517 154.63 25.2517C158.165 25.2517 161.7 25.2517 165.235 25.2517C165.694 25.2517 165.939 25.3659 166.135 25.8226C168.82 31.9557 171.553 38.0887 174.253 44.2218C175.808 47.7287 177.347 51.2519 178.885 54.7589C178.934 54.8567 178.983 54.9383 179.081 55.1177C179.441 54.3674 179.769 53.6986 180.063 53.0135C182.289 48.0712 184.531 43.1452 186.724 38.2029C188.558 34.0598 190.358 29.9004 192.158 25.741C192.289 25.4474 192.436 25.268 192.813 25.268C196.512 25.268 200.227 25.268 203.926 25.268C204.024 25.268 204.122 25.3006 204.269 25.317V26.002C204.007 26.0183 203.762 26.051 203.516 26.0673C201.863 26.2141 200.505 26.8502 199.589 28.2856C199.065 29.1175 198.901 30.0635 198.852 31.0096C198.737 33.3258 198.623 35.642 198.607 37.9582C198.557 43.4551 198.557 48.9683 198.574 54.4653C198.574 56.1943 198.656 57.9233 198.688 59.6523C198.688 59.848 198.721 60.0274 198.737 60.2231C198.868 61.8217 199.818 62.8166 201.127 63.567C201.994 64.0726 202.944 64.3499 203.958 64.4641C204.171 64.4804 204.368 64.513 204.613 64.5456V65.1655H185.497C185.497 64.986 185.464 64.7903 185.448 64.513C185.792 64.4641 186.103 64.4151 186.414 64.3825C188.001 64.1705 189.458 63.6975 190.685 62.6209C191.373 62.0337 191.798 61.2997 191.962 60.4189C192.109 59.5544 192.256 58.6736 192.305 57.7928C192.387 56.2106 192.436 54.6284 192.436 53.0625C192.436 45.1515 192.436 37.2405 192.436 29.3295C192.436 29.1664 192.436 28.987 192.436 28.8239C192.404 28.8239 192.387 28.8076 192.355 28.7913C192.24 29.0359 192.109 29.2969 191.994 29.5416C188.656 36.9632 185.284 44.3686 181.978 51.8065C180.194 55.7865 178.509 59.8154 176.79 63.8116C176.741 63.9258 176.708 64.0563 176.626 64.1542C176.463 64.3662 176.201 64.3662 176.054 64.1379C175.955 63.9911 175.906 63.8442 175.841 63.6811C174.171 59.8317 172.518 55.9822 170.816 52.149C168.541 46.9784 166.217 41.824 163.926 36.6696C162.977 34.5492 162.027 32.4287 161.095 30.3245C161.013 30.1288 160.915 29.9494 160.751 29.7699C160.751 29.9494 160.718 30.1125 160.718 30.2919C160.718 32.2982 160.718 34.3045 160.702 36.2945C160.669 42.2155 160.604 48.1365 160.604 54.0738C160.604 55.6886 160.718 57.3197 160.865 58.9345C160.964 60.0437 161.324 61.104 161.995 62.05C162.633 62.9634 163.517 63.5017 164.532 63.8606C165.284 64.1215 166.086 64.2847 166.856 64.4804C167.347 64.5946 167.347 64.5946 167.297 65.1981H152.797C152.65 64.5946 152.666 64.6109 153.19 64.4315C153.992 64.1705 154.826 63.9421 155.563 63.567C156.987 62.833 157.838 61.5933 158.345 60.109C158.852 58.6246 159.082 57.0751 159.131 55.5092C159.262 51.6597 159.343 47.7939 159.409 43.9445C159.458 41.2205 159.474 38.5128 159.474 35.7888C159.474 34.2066 159.442 32.6244 159.376 31.0422C159.294 28.7913 157.887 27.0949 155.546 26.4261C155.186 26.3283 154.81 26.2304 154.433 26.1651C153.861 26.051 153.861 26.051 154.008 25.3496L154.024 25.2843Z" fill="white"/>
<path d="M81.9624 71.9346C76.9706 60.6145 71.9625 49.2782 66.9707 37.9581C67.0034 37.9092 67.0198 37.8766 67.0525 37.8276C74.6957 40.4701 82.5679 40.78 90.6202 40.2091C91.7659 51.8717 89 62.4414 82.1915 71.9346C82.126 71.9346 82.0442 71.9346 81.9788 71.9346H81.9624Z" fill="white"/>
<path d="M213.125 54.0574C213.78 53.9432 213.78 53.9595 214.009 54.5141C215.089 57.2218 216.595 59.6685 218.706 61.7074C219.983 62.9307 221.521 63.6321 223.174 64.1378C225.662 64.9207 228.117 64.8065 230.49 63.7789C233.19 62.6045 234.794 60.533 235.154 57.5643C235.302 56.3736 235.22 55.1992 234.827 54.0737C234.205 52.361 232.961 51.2029 231.374 50.3547C229.671 49.4413 227.838 48.8704 226.022 48.2342C224.205 47.5981 222.356 47.0435 220.588 46.3095C216.742 44.6947 214.14 41.9218 213.518 37.7298C212.749 32.5917 215.073 28.3181 219.639 26.1324C221.603 25.2027 223.681 24.8112 225.842 24.697C227.544 24.6155 229.23 24.697 230.883 25.0232C232.732 25.3984 234.516 26.0019 236.087 27.0948C236.169 27.16 236.267 27.1926 236.382 27.2579C236.905 26.8664 237.266 26.3445 237.609 25.8225C237.887 25.3984 238.182 25.2353 238.706 25.4147V35.593C238.018 35.7724 238.002 35.7724 237.757 35.1689C237.151 33.7009 236.447 32.2818 235.531 30.9932C234.123 28.9869 232.437 27.2905 230.113 26.3771C227.298 25.2842 224.532 25.4963 221.93 27.0132C219.803 28.2692 218.804 30.2592 218.591 32.6569C218.51 33.5377 218.575 34.4186 218.788 35.2994C219.181 36.8652 220.13 38.0234 221.406 38.9857C223.092 40.258 225.04 40.9268 227.004 41.6282C229.213 42.4111 231.455 43.1288 233.649 43.9607C235.498 44.6784 237.118 45.7875 238.411 47.3208C239.868 49.0335 240.555 51.0235 240.702 53.2255C240.801 54.7098 240.735 56.1778 240.261 57.5969C239.328 60.4188 237.462 62.4577 234.827 63.8278C232.699 64.937 230.408 65.41 228.051 65.5242C225.514 65.6547 222.978 65.6384 220.474 65.0838C218.951 64.7576 217.495 64.2845 216.136 63.5016C215.629 63.208 215.564 63.208 215.171 63.6484C214.86 63.9909 214.565 64.3498 214.271 64.7086C214.205 64.7902 214.156 64.9207 214.074 64.9533C213.894 65.0349 213.681 65.1327 213.501 65.0838C213.403 65.0675 213.289 64.7902 213.289 64.6434C213.24 63.1101 213.207 61.5606 213.19 60.0273C213.174 58.2331 213.158 56.4388 213.158 54.6446C213.158 54.4325 213.158 54.2368 213.158 54.0411L213.125 54.0574Z" fill="white"/>
<path d="M145.433 25.7247V38.1702C145.171 38.1865 144.925 38.2028 144.68 38.2191C144.369 37.371 144.091 36.5554 143.747 35.7724C142.094 32.0045 139.59 28.938 135.842 27.1275C130.736 24.6644 125.776 24.9744 121.112 28.3345C118.428 30.2755 116.66 32.918 115.4 35.9356C114.222 38.7574 113.616 41.7098 113.534 44.7926C113.453 48.4463 114.042 51.9696 115.646 55.2808C117.921 59.9784 121.521 63.1428 126.758 64.1215C131.947 65.0839 136.398 63.4854 140.146 59.8479C141.488 58.5593 142.585 57.0913 143.37 55.4276C143.796 54.5141 144.107 53.5518 144.418 52.5894C144.631 51.9533 144.614 51.9369 145.383 52.1001C145.383 56.1453 145.302 60.1905 145.22 64.2357C144.68 64.4151 144.336 64.3172 144.009 63.8442C143.583 63.2244 143.027 62.6861 142.519 62.1315C142.274 61.8705 142.012 61.8868 141.734 62.0826C139.197 63.7626 136.382 64.7087 133.403 65.1165C128.706 65.7852 124.074 65.5079 119.557 63.9421C116.251 62.8003 113.387 60.9734 111.096 58.331C108.755 55.607 107.381 52.4263 106.808 48.903C106.169 44.8741 106.562 40.9758 108.133 37.1915C110.31 31.9393 113.993 28.204 119.312 26.0998C122.634 24.7949 126.087 24.3872 129.639 24.4687C132.978 24.5503 136.186 25.2517 139.23 26.6218C140.097 27.0133 140.899 27.5189 141.717 27.992C142.274 28.3182 142.274 28.3671 142.748 27.8941C143.321 27.3069 143.878 26.7034 144.385 26.0672C144.663 25.7084 144.942 25.5779 145.433 25.741V25.7247Z" fill="white"/>
</svg>
